<svg width="85" height="85" viewBox="0 0 85 85" fill="none" xmlns="http://www.w3.org/2000/svg">
<circle cx="42.5" cy="42.5" r="42.5" fill="#E2F1FF"/>
<path d="M46 19C46 17.3431 44.6569 16 43 16C41.3431 16 40 17.3431 40 19L46 19ZM40.8787 66.1213C42.0503 67.2929 43.9497 67.2929 45.1213 66.1213L64.2132 47.0294C65.3848 45.8579 65.3848 43.9584 64.2132 42.7868C63.0416 41.6152 61.1421 41.6152 59.9706 42.7868L43 59.7574L26.0294 42.7868C24.8579 41.6152 22.9584 41.6152 21.7868 42.7868C20.6152 43.9584 20.6152 45.8579 21.7868 47.0294L40.8787 66.1213ZM40 19L40 64L46 64L46 19L40 19Z" fill="#4F686F"/>
</svg>
