<svg width="93" height="93" viewBox="0 0 93 93" fill="none" xmlns="http://www.w3.org/2000/svg">
<circle cx="46.5" cy="46.5" r="46.5" fill="#D9D9D9"/>
<rect width="50" height="50" transform="translate(22 21)" fill="#D9D9D9"/>
<path d="M55.3335 37.6666C58.6487 37.6666 61.8281 38.9836 64.1723 41.3278C66.5165 43.672 67.8335 46.8514 67.8335 50.1666V64.75H59.5002V50.1666C59.5002 49.0616 59.0612 48.0018 58.2798 47.2203C57.4984 46.4389 56.4386 46 55.3335 46C54.2284 46 53.1686 46.4389 52.3872 47.2203C51.6058 48.0018 51.1668 49.0616 51.1668 50.1666V64.75H42.8335V50.1666C42.8335 46.8514 44.1505 43.672 46.4947 41.3278C48.8389 38.9836 52.0183 37.6666 55.3335 37.6666Z" fill="#2E3C40" stroke="#2E3C40" stroke-linecap="round" stroke-linejoin="round"/>
<path d="M26.1665 39.25C25.8904 39.25 25.6665 39.4739 25.6665 39.75V64.75C25.6665 65.0261 25.8904 65.25 26.1665 65.25H34.4998C34.776 65.25 34.9998 65.0261 34.9998 64.75V39.75C34.9998 39.4739 34.776 39.25 34.4998 39.25H26.1665Z" fill="#2E3C40" stroke="#2E3C40" stroke-linecap="round" stroke-linejoin="round"/>
<path d="M30.3332 33.5C32.6344 33.5 34.4998 31.6345 34.4998 29.3333C34.4998 27.0321 32.6344 25.1666 30.3332 25.1666C28.032 25.1666 26.1665 27.0321 26.1665 29.3333C26.1665 31.6345 28.032 33.5 30.3332 33.5Z" fill="#2E3C40" stroke="#2E3C40" stroke-linecap="round" stroke-linejoin="round"/>
</svg>
