<svg width="1808" height="554" viewBox="0 0 1808 554" fill="none" xmlns="http://www.w3.org/2000/svg">
<path d="M1259.15 204.655H1408.72L1497.44 298.753H1340.27L1259.15 204.655Z" fill="#3E4F66"/>
<path d="M1470.4 287.147L1401 215.241L1323 299.936L1194.38 287.147V438.3H1470.4V287.147Z" fill="#E5E5E5"/>
<path d="M1323.76 288.323H1194.38V439.476H1323.76V288.323Z" fill="#D0CCCC"/>
<path d="M1388.45 374.913H1418.64V438.3H1388.45V374.913Z" fill="#3E4F66"/>
<path d="M1241.82 311.527H1272.01V335.906H1241.82V311.527Z" fill="#3E4F66"/>
<path d="M1392.77 253.016H1410.02V287.147H1392.77V253.016Z" fill="#3E4F66"/>
<path d="M1326.4 298.769C1327.58 298.76 1328.51 299.962 1328.4 301.351L1328.2 303.687C1328.1 304.892 1327.24 305.81 1326.21 305.81H1171.38C1170.28 305.81 1169.38 304.756 1169.38 303.458V302.266C1169.38 300.974 1170.27 299.922 1171.37 299.914L1326.4 298.769Z" fill="#AFAFAF"/>
<path d="M1184.39 299.929C1183.04 302.462 1183.04 303.156 1184.39 305.728H1183.32C1181.63 303.768 1181.7 302.502 1183.32 299.929H1184.39Z" fill="#D9D9D9"/>
<path d="M1172.85 299.929C1171.5 302.462 1171.5 303.156 1172.85 305.728H1171.78C1170.09 303.768 1170.16 302.502 1171.78 299.929H1172.85Z" fill="#D9D9D9"/>
<path d="M1197.08 299.929C1195.74 302.462 1195.74 303.156 1197.08 305.728H1196.01C1194.32 303.768 1194.39 302.502 1196.01 299.929H1197.08Z" fill="#D9D9D9"/>
<path d="M1209.77 299.929C1208.43 302.462 1208.43 303.156 1209.77 305.728H1208.7C1207.01 303.768 1207.08 302.502 1208.7 299.929H1209.77Z" fill="#D9D9D9"/>
<path d="M1222.47 299.929C1221.12 302.462 1221.12 303.156 1222.47 305.728H1221.39C1219.71 303.768 1219.77 302.502 1221.39 299.929H1222.47Z" fill="#D9D9D9"/>
<path d="M1235.16 299.929C1233.81 302.462 1233.81 303.156 1235.16 305.728H1234.09C1232.4 303.768 1232.47 302.502 1234.09 299.929H1235.16Z" fill="#D9D9D9"/>
<path d="M1247.85 299.929C1246.5 302.462 1246.5 303.156 1247.85 305.728H1246.78C1245.09 303.768 1245.16 302.502 1246.78 299.929H1247.85Z" fill="#D9D9D9"/>
<path d="M1260.54 299.929C1259.2 302.462 1259.2 303.156 1260.54 305.728H1259.47C1257.78 303.768 1257.85 302.502 1259.47 299.929H1260.54Z" fill="#D9D9D9"/>
<path d="M1273.24 299.929C1271.89 302.462 1271.89 303.156 1273.24 305.728H1272.16C1270.48 303.768 1270.54 302.502 1272.16 299.929H1273.24Z" fill="#D9D9D9"/>
<path d="M1285.93 299.929C1284.58 302.462 1284.58 303.156 1285.93 305.728H1284.86C1283.17 303.768 1283.24 302.502 1284.86 299.929H1285.93Z" fill="#D9D9D9"/>
<path d="M1298.62 299.929C1297.27 302.462 1297.27 303.156 1298.62 305.728H1297.55C1295.86 303.768 1295.93 302.502 1297.55 299.929H1298.62Z" fill="#D9D9D9"/>
<path d="M1311.31 299.929C1309.97 302.462 1309.97 303.156 1311.31 305.728H1310.24C1308.55 303.768 1308.62 302.502 1310.24 299.929H1311.31Z" fill="#D9D9D9"/>
<path d="M1324 299.929C1322.66 302.462 1322.66 303.156 1324 305.728H1322.93C1321.25 303.768 1321.31 302.502 1322.93 299.929H1324Z" fill="#D9D9D9"/>
<path d="M1095.36 365.374C1095.36 387.859 1075.59 406.088 1051.2 406.088C1026.82 406.088 1007.05 387.859 1007.05 365.374C1007.05 342.888 1026.82 324.66 1051.2 324.66C1075.59 324.66 1095.36 342.888 1095.36 365.374Z" fill="#5F9060"/>
<path d="M1051.2 231.881L1061.01 442.852H1041.39L1045.54 279.1L1051.2 231.881Z" fill="#3E4F66"/>
<path d="M1035.99 349.865L1051.15 379.886L1042.33 386.376L1036.27 360.475L1035.99 349.865Z" fill="#3E4F66"/>
<path d="M1073.15 330.083L1057.51 359.545L1051.2 348.203L1066.39 333.056L1073.15 330.083Z" fill="#3E4F66"/>
<path d="M1075.73 261.49C1075.73 279.888 1063.65 294.802 1048.75 294.802C1033.85 294.802 1021.77 279.888 1021.77 261.49C1021.77 243.093 1033.85 228.18 1048.75 228.18C1063.65 228.18 1075.73 243.093 1075.73 261.49Z" fill="#5F9060"/>
<path d="M1088 309.607C1088 332.092 1071.52 350.321 1051.2 350.321C1030.88 350.321 1014.41 332.092 1014.41 309.607C1014.41 287.121 1030.88 268.893 1051.2 268.893C1071.52 268.893 1088 287.121 1088 309.607Z" fill="#5F9060"/>
<path d="M397.615 365.362C397.615 390.931 376.435 411.658 350.308 411.658C324.18 411.658 303 390.931 303 365.362C303 339.795 324.18 319.068 350.308 319.068C376.435 319.068 397.615 339.795 397.615 365.362Z" fill="#5F9060"/>
<path d="M350.307 213.569L360.82 453.463H339.795L344.238 267.261L350.307 213.569Z" fill="#3E4F66"/>
<path d="M333.004 328.016L349.418 368.695L342.916 373.772L334.584 340.832L333.004 328.016Z" fill="#3E4F66"/>
<path d="M376.32 368.875L356.221 381.807V371.051L371.042 367.754L376.32 368.875Z" fill="#3E4F66"/>
<path d="M376.59 247.238C376.59 268.157 363.647 285.116 347.68 285.116C331.713 285.116 318.77 268.157 318.77 247.238C318.77 226.319 331.713 209.36 347.68 209.36C363.647 209.36 376.59 226.319 376.59 247.238Z" fill="#5F9060"/>
<path d="M389.731 301.951C389.731 327.519 372.08 348.246 350.308 348.246C328.535 348.246 310.885 327.519 310.885 301.951C310.885 276.383 328.535 255.655 350.308 255.655C372.08 255.655 389.731 276.383 389.731 301.951Z" fill="#5F9060"/>
<path d="M1551.95 395.929C1551.95 408.192 1539.31 418.135 1523.71 418.135C1508.11 418.135 1495.46 408.192 1495.46 395.929C1495.46 383.664 1508.11 373.723 1523.71 373.723C1539.31 373.723 1551.95 383.664 1551.95 395.929Z" fill="#5F9060"/>
<path d="M1523.71 323.12L1529.98 438.186H1517.43L1520.08 348.874L1523.71 323.12Z" fill="#3E4F66"/>
<path d="M1513.97 387.469L1523.67 403.844L1518.03 407.384L1514.15 393.256L1513.97 387.469Z" fill="#3E4F66"/>
<path d="M1537.74 376.68L1527.74 392.75L1523.71 386.564L1533.42 378.302L1537.74 376.68Z" fill="#3E4F66"/>
<path d="M1539.4 339.269C1539.4 349.303 1531.67 357.438 1522.14 357.438C1512.6 357.438 1504.88 349.303 1504.88 339.269C1504.88 329.235 1512.6 321.101 1522.14 321.101C1531.67 321.101 1539.4 329.235 1539.4 339.269Z" fill="#5F9060"/>
<path d="M1547.24 365.513C1547.24 377.776 1536.71 387.719 1523.71 387.719C1510.71 387.719 1500.17 377.776 1500.17 365.513C1500.17 353.249 1510.71 343.307 1523.71 343.307C1536.71 343.307 1547.24 353.249 1547.24 365.513Z" fill="#5F9060"/>
<path d="M215.491 400.641C215.491 412.905 202.845 422.847 187.245 422.847C171.646 422.847 159 412.905 159 400.641C159 388.376 171.646 378.435 187.245 378.435C202.845 378.435 215.491 388.376 215.491 400.641Z" fill="#5F9060"/>
<path d="M187.245 327.832L193.522 442.898H180.969L183.621 353.586L187.245 327.832Z" fill="#3E4F66"/>
<path d="M177.512 392.181L187.212 408.556L181.571 412.096L177.69 397.968L177.512 392.181Z" fill="#3E4F66"/>
<path d="M201.283 381.392L191.28 397.461L187.245 391.276L196.961 383.015L201.283 381.392Z" fill="#3E4F66"/>
<path d="M202.937 343.981C202.937 354.015 195.209 362.15 185.676 362.15C176.143 362.15 168.415 354.015 168.415 343.981C168.415 333.948 176.143 325.813 185.676 325.813C195.209 325.813 202.937 333.948 202.937 343.981Z" fill="#5F9060"/>
<path d="M210.783 370.225C210.783 382.488 200.245 392.431 187.245 392.431C174.246 392.431 163.708 382.488 163.708 370.225C163.708 357.96 174.246 348.019 187.245 348.019C200.245 348.019 210.783 357.96 210.783 370.225Z" fill="#5F9060"/>
<path d="M432.954 432.419C432.954 438.863 427.333 444.087 420.4 444.087C413.467 444.087 407.846 438.863 407.846 432.419C407.846 425.974 413.467 420.751 420.4 420.751C427.333 420.751 432.954 425.974 432.954 432.419Z" fill="#5F9060"/>
<path d="M437.662 428.043C437.662 434.488 432.041 439.711 425.108 439.711C418.175 439.711 412.554 434.488 412.554 428.043C412.554 421.599 418.175 416.375 425.108 416.375C432.041 416.375 437.662 421.599 437.662 428.043Z" fill="#5F9060"/>
<path d="M447.077 433.877C447.077 440.322 441.808 445.545 435.308 445.545C428.808 445.545 423.538 440.322 423.538 433.877C423.538 427.433 428.808 422.209 435.308 422.209C441.808 422.209 447.077 427.433 447.077 433.877Z" fill="#5F9060"/>
<path d="M428.246 425.126L432.954 452.838H423.538L425.528 431.328L428.246 425.126Z" fill="#3E4F66"/>
<path d="M595.097 306.793C595.846 305.601 597.441 304.946 598.658 305.329C599.876 305.713 600.256 306.991 599.506 308.184L593.612 317.562C592.862 318.753 591.268 319.409 590.05 319.025C588.833 318.642 588.453 317.363 589.202 316.172L595.097 306.793Z" fill="#3E4F66" fill-opacity="0.69"/>
<path d="M576.625 333.896C577.128 332.52 578.565 331.497 579.835 331.611C581.105 331.724 581.726 332.93 581.222 334.307L577.469 344.564C576.965 345.941 575.528 346.964 574.258 346.85C572.988 346.737 572.367 345.53 572.871 344.154L576.625 333.896Z" fill="#3E4F66" fill-opacity="0.69"/>
<path d="M567.127 369.465C567.63 368.089 569.067 367.066 570.337 367.178C571.607 367.291 572.228 368.499 571.724 369.874L567.97 380.133C567.467 381.508 566.03 382.532 564.76 382.419C563.49 382.306 562.869 381.099 563.373 379.723L567.127 369.465Z" fill="#3E4F66" fill-opacity="0.69"/>
<path d="M548.665 362.408C549.168 361.032 550.606 360.008 551.875 360.121C553.145 360.234 553.766 361.442 553.263 362.817L549.509 373.076C549.005 374.451 547.568 375.474 546.298 375.361C545.029 375.249 544.408 374.042 544.911 372.666L548.665 362.408Z" fill="#3E4F66" fill-opacity="0.69"/>
<path d="M530.204 371.818C530.707 370.441 532.144 369.418 533.414 369.531C534.684 369.644 535.305 370.852 534.802 372.227L531.048 382.486C530.544 383.861 529.107 384.884 527.837 384.771C526.568 384.658 525.946 383.452 526.45 382.075L530.204 371.818Z" fill="#3E4F66" fill-opacity="0.69"/>
<path d="M547.756 387.301C548.021 385.837 549.266 384.557 550.535 384.444C551.805 384.331 552.619 385.426 552.354 386.892L550.418 397.583C550.153 399.047 548.909 400.327 547.639 400.44C546.369 400.554 545.555 399.458 545.82 397.993L547.756 387.301Z" fill="#3E4F66" fill-opacity="0.69"/>
<path d="M547.512 333.002C548.015 331.626 549.452 330.603 550.722 330.716C551.992 330.829 552.613 332.037 552.109 333.412L548.355 343.671C547.852 345.046 546.415 346.069 545.145 345.956C543.875 345.843 543.254 344.636 543.758 343.26L547.512 333.002Z" fill="#3E4F66" fill-opacity="0.69"/>
<path d="M561.156 308.243C561.865 307.014 563.439 306.288 564.67 306.624C565.901 306.961 566.324 308.231 565.614 309.461L560.095 319.028C559.386 320.258 557.813 320.982 556.581 320.646C555.35 320.31 554.928 319.04 555.637 317.81L561.156 308.243Z" fill="#3E4F66" fill-opacity="0.69"/>
<path d="M572.961 312.667C573.671 311.436 575.244 310.712 576.475 311.048C577.706 311.384 578.129 312.654 577.42 313.884L571.901 323.45C571.191 324.68 569.618 325.405 568.387 325.069C567.156 324.733 566.733 323.463 567.443 322.233L572.961 312.667Z" fill="#3E4F66" fill-opacity="0.69"/>
<path d="M583.558 291.502C584.308 290.31 585.902 289.655 587.12 290.038C588.337 290.422 588.717 291.7 587.968 292.893L582.073 302.271C581.324 303.463 579.729 304.118 578.512 303.734C577.294 303.351 576.914 302.072 577.664 300.881L583.558 291.502Z" fill="#3E4F66" fill-opacity="0.69"/>
<path d="M1808 438H0V554H1808V438Z" fill="#AEDBAB"/>
<path d="M1175.15 303.458H1180.92V362.269H1175.15V303.458Z" fill="#AFAFAF"/>
<path d="M1136.77 364.621C1135.67 364.621 1134.77 363.567 1134.77 362.269V361.093C1134.77 359.793 1135.67 358.74 1136.77 358.74H1178.92C1180.03 358.74 1180.92 359.793 1180.92 361.093V362.269C1180.92 363.567 1180.03 364.621 1178.92 364.621H1136.77Z" fill="#AFAFAF"/>
<path d="M1175.15 317.573C1177.64 318.944 1178.32 318.944 1180.84 317.573V318.664C1178.92 320.385 1177.68 320.317 1175.15 318.664V317.573Z" fill="#D9D9D9"/>
<path d="M1175.15 329.335C1177.64 330.706 1178.32 330.706 1180.84 329.335V330.426C1178.92 332.147 1177.68 332.079 1175.15 330.426V329.335Z" fill="#D9D9D9"/>
<path d="M1175.15 341.097C1177.64 342.468 1178.32 342.468 1180.84 341.097V342.188C1178.92 343.909 1177.68 343.841 1175.15 342.188V341.097Z" fill="#D9D9D9"/>
<path d="M1175.15 352.859C1177.64 354.231 1178.32 354.231 1180.84 352.859V353.951C1178.92 355.672 1177.68 355.603 1175.15 353.951V352.859Z" fill="#D9D9D9"/>
<path d="M1170.54 358.74C1169.2 361.273 1169.2 361.967 1170.54 364.539H1169.47C1167.78 362.579 1167.85 361.313 1169.47 358.74H1170.54Z" fill="#D9D9D9"/>
<path d="M1157.85 358.74C1156.51 361.273 1156.51 361.967 1157.85 364.539H1156.78C1155.09 362.579 1155.16 361.313 1156.78 358.74H1157.85Z" fill="#D9D9D9"/>
<path d="M1144.01 358.74C1142.66 361.273 1142.66 361.967 1144.01 364.539H1142.93C1141.25 362.579 1141.31 361.313 1142.93 358.74H1144.01Z" fill="#D9D9D9"/>
<path d="M1175.15 305.81C1177.64 307.182 1178.32 307.182 1180.84 305.81V306.902C1178.92 308.623 1177.68 308.554 1175.15 306.902V305.81Z" fill="#D9D9D9"/>
<path d="M1408.24 204.655H1256.87L1167.08 299.929H1326.14L1408.24 204.655Z" fill="#3E4F66"/>
<path d="M1109.19 495.55C1109.19 498.133 1106.98 500.227 1104.6 500.227C1102.22 500.227 1100.29 498.133 1100.29 495.55C1100.29 492.967 1102.22 490.873 1104.6 490.873C1106.98 490.873 1109.19 492.967 1109.19 495.55Z" fill="#5F9060"/>
<path d="M1123.37 495.55C1123.37 498.133 1121.44 500.227 1119.06 500.227C1116.68 500.227 1114.75 498.133 1114.75 495.55C1114.47 492.574 1116.68 490.873 1119.06 490.873C1121.44 490.873 1123.37 492.967 1123.37 495.55Z" fill="#5F9060"/>
<path d="M1120.31 504.336C1120.31 506.919 1118.38 509.013 1116 509.013C1113.62 509.013 1111.69 506.919 1111.69 504.336C1111.69 501.753 1113.62 499.376 1116 499.376C1118.38 499.376 1120.31 501.753 1120.31 504.336Z" fill="#5F9060"/>
<path d="M1111.97 503.912C1111.97 506.494 1109.76 509.013 1107.38 509.013C1105 509.013 1103.07 506.919 1103.07 504.336C1103.07 501.753 1105 499.66 1107.38 499.66C1109.76 499.66 1111.97 501.329 1111.97 503.912Z" fill="#5F9060"/>
<path d="M1111.83 495.125C1114.21 495.125 1116.14 493.032 1116.14 490.449C1116.14 487.866 1114.21 485.772 1111.83 485.772C1109.45 485.772 1107.52 487.866 1107.52 490.449C1107.52 493.032 1109.45 495.125 1111.83 495.125Z" fill="#5F9060"/>
<path d="M1110.58 492.291H1107.8V497.392H1110.58V492.291Z" fill="#5F9060"/>
<path d="M1109.19 496.543H1106.41V501.644H1109.19V496.543Z" fill="#5F9060"/>
<path d="M1113.08 499.943H1110.3V505.045H1113.08V499.943Z" fill="#5F9060"/>
<path d="M1117.25 496.825H1114.47V501.927H1117.25V496.825Z" fill="#5F9060"/>
<path d="M1115.86 492.291H1113.08V497.392H1115.86V492.291Z" fill="#5F9060"/>
<path d="M1111.69 501.077C1113.69 501.077 1115.3 499.427 1115.3 497.392C1115.3 495.357 1113.69 493.707 1111.69 493.707C1109.69 493.707 1108.08 495.357 1108.08 497.392C1108.08 499.427 1109.69 501.077 1111.69 501.077Z" fill="#3E4F66"/>
<path d="M1110.78 505.056C1110.82 504.566 1111.17 504.194 1111.59 504.194C1112.09 504.194 1112.47 504.705 1112.41 505.281L1111.02 518.018C1110.91 519.003 1110.91 519.998 1111 520.983L1112.42 535.429C1112.48 536.001 1112.09 536.505 1111.6 536.505C1111.18 536.505 1110.83 536.127 1110.78 535.631L1109.59 521.054C1109.51 520.02 1109.51 518.979 1109.61 517.946L1110.78 505.056Z" fill="#3E4F66"/>
<path d="M1215.65 468.986C1215.65 471.697 1213.33 473.896 1210.83 473.896C1208.33 473.896 1206.31 471.697 1206.31 468.986C1206.31 466.274 1208.33 464.076 1210.83 464.076C1213.33 464.076 1215.65 466.274 1215.65 468.986Z" fill="#5F9060"/>
<path d="M1230.54 468.986C1230.54 471.697 1228.51 473.896 1226.01 473.896C1223.51 473.896 1221.49 471.697 1221.49 468.986C1221.2 465.861 1223.51 464.076 1226.01 464.076C1228.51 464.076 1230.54 466.274 1230.54 468.986Z" fill="#5F9060"/>
<path d="M1227.33 478.211C1227.33 480.924 1225.3 483.122 1222.8 483.122C1220.3 483.122 1218.28 480.924 1218.28 478.211C1218.28 475.5 1220.3 473.003 1222.8 473.003C1225.3 473.003 1227.33 475.5 1227.33 478.211Z" fill="#5F9060"/>
<path d="M1218.57 477.766C1218.57 480.477 1216.25 483.122 1213.75 483.122C1211.25 483.122 1209.23 480.924 1209.23 478.211C1209.23 475.5 1211.25 473.301 1213.75 473.301C1216.25 473.301 1218.57 475.053 1218.57 477.766Z" fill="#5F9060"/>
<path d="M1218.42 468.54C1220.92 468.54 1222.95 466.342 1222.95 463.63C1222.95 460.918 1220.92 458.719 1218.42 458.719C1215.92 458.719 1213.9 460.918 1213.9 463.63C1213.9 466.342 1215.92 468.54 1218.42 468.54Z" fill="#5F9060"/>
<path d="M1217.11 465.563H1214.19V470.92H1217.11V465.563Z" fill="#5F9060"/>
<path d="M1215.65 470.027H1212.73V475.384H1215.65V470.027Z" fill="#5F9060"/>
<path d="M1219.74 473.599H1216.82V478.956H1219.74V473.599Z" fill="#5F9060"/>
<path d="M1224.12 470.325H1221.2V475.682H1224.12V470.325Z" fill="#5F9060"/>
<path d="M1222.66 465.563H1219.74V470.92H1222.66V465.563Z" fill="#5F9060"/>
<path d="M1218.28 474.789C1220.38 474.789 1222.08 473.057 1222.08 470.92C1222.08 468.783 1220.38 467.051 1218.28 467.051C1216.18 467.051 1214.48 468.783 1214.48 470.92C1214.48 473.057 1216.18 474.789 1218.28 474.789Z" fill="#3E4F66"/>
<path d="M1219.52 478.968C1219.47 478.453 1219.1 478.063 1218.66 478.063C1218.14 478.063 1217.74 478.598 1217.81 479.204L1219.27 492.578C1219.38 493.61 1219.38 494.656 1219.28 495.691L1217.79 510.857C1217.74 511.461 1218.14 511.989 1218.65 511.989C1219.1 511.989 1219.47 511.591 1219.51 511.071L1220.76 495.765C1220.85 494.68 1220.85 493.587 1220.75 492.502L1219.52 478.968Z" fill="#3E4F66"/>
<path d="M1365.02 437.625C1365.02 439.821 1363.15 441.6 1361.12 441.6C1359.1 441.6 1357.46 439.821 1357.46 437.625C1357.46 435.43 1359.1 433.65 1361.12 433.65C1363.15 433.65 1365.02 435.43 1365.02 437.625Z" fill="#5F9060"/>
<path d="M1377.08 437.625C1377.08 439.821 1375.44 441.6 1373.41 441.6C1371.39 441.6 1369.75 439.821 1369.75 437.625C1369.51 435.095 1371.39 433.65 1373.41 433.65C1375.44 433.65 1377.08 435.43 1377.08 437.625Z" fill="#5F9060"/>
<path d="M1374.48 445.094C1374.48 447.289 1372.84 449.068 1370.81 449.068C1368.79 449.068 1367.15 447.289 1367.15 445.094C1367.15 442.898 1368.79 440.877 1370.81 440.877C1372.84 440.877 1374.48 442.898 1374.48 445.094Z" fill="#5F9060"/>
<path d="M1367.39 444.731C1367.39 446.927 1365.51 449.068 1363.49 449.068C1361.46 449.068 1359.82 447.289 1359.82 445.094C1359.82 442.898 1361.46 441.118 1363.49 441.118C1365.51 441.118 1367.39 442.537 1367.39 444.731Z" fill="#5F9060"/>
<path d="M1367.27 437.263C1369.29 437.263 1370.93 435.483 1370.93 433.288C1370.93 431.093 1369.29 429.313 1367.27 429.313C1365.25 429.313 1363.61 431.093 1363.61 433.288C1363.61 435.483 1365.25 437.263 1367.27 437.263Z" fill="#5F9060"/>
<path d="M1366.2 434.855H1363.84V439.191H1366.2V434.855Z" fill="#5F9060"/>
<path d="M1365.02 438.468H1362.66V442.804H1365.02V438.468Z" fill="#5F9060"/>
<path d="M1368.33 441.359H1365.97V445.696H1368.33V441.359Z" fill="#5F9060"/>
<path d="M1371.87 438.709H1369.51V443.046H1371.87V438.709Z" fill="#5F9060"/>
<path d="M1370.69 434.855H1368.33V439.191H1370.69V434.855Z" fill="#5F9060"/>
<path d="M1367.15 442.323C1368.85 442.323 1370.22 440.921 1370.22 439.191C1370.22 437.462 1368.85 436.06 1367.15 436.06C1365.45 436.06 1364.08 437.462 1364.08 439.191C1364.08 440.921 1365.45 442.323 1367.15 442.323Z" fill="#3E4F66"/>
<path d="M1366.38 445.705C1366.41 445.289 1366.71 444.973 1367.07 444.973C1367.49 444.973 1367.81 445.407 1367.76 445.896L1366.58 456.723C1366.49 457.559 1366.48 458.405 1366.57 459.244L1367.77 471.521C1367.82 472.009 1367.49 472.437 1367.08 472.437C1366.72 472.437 1366.42 472.115 1366.38 471.694L1365.37 459.304C1365.3 458.425 1365.3 457.539 1365.38 456.662L1366.38 445.705Z" fill="#3E4F66"/>
<path d="M1527.9 486.14C1527.9 488.723 1525.69 490.817 1523.31 490.817C1520.93 490.817 1519 488.723 1519 486.14C1519 483.557 1520.93 481.464 1523.31 481.464C1525.69 481.464 1527.9 483.557 1527.9 486.14Z" fill="#5F9060"/>
<path d="M1542.08 486.14C1542.08 488.723 1540.15 490.817 1537.77 490.817C1535.39 490.817 1533.46 488.723 1533.46 486.14C1533.18 483.164 1535.39 481.464 1537.77 481.464C1540.15 481.464 1542.08 483.557 1542.08 486.14Z" fill="#5F9060"/>
<path d="M1539.02 494.927C1539.02 497.51 1537.09 499.603 1534.71 499.603C1532.33 499.603 1530.4 497.51 1530.4 494.927C1530.4 492.344 1532.33 489.967 1534.71 489.967C1537.09 489.967 1539.02 492.344 1539.02 494.927Z" fill="#5F9060"/>
<path d="M1530.68 494.502C1530.68 497.084 1528.47 499.603 1526.09 499.603C1523.71 499.603 1521.78 497.51 1521.78 494.927C1521.78 492.344 1523.71 490.25 1526.09 490.25C1528.47 490.25 1530.68 491.919 1530.68 494.502Z" fill="#5F9060"/>
<path d="M1530.54 485.716C1532.92 485.716 1534.85 483.622 1534.85 481.039C1534.85 478.456 1532.92 476.362 1530.54 476.362C1528.16 476.362 1526.23 478.456 1526.23 481.039C1526.23 483.622 1528.16 485.716 1530.54 485.716Z" fill="#5F9060"/>
<path d="M1529.29 482.881H1526.51V487.983H1529.29V482.881Z" fill="#5F9060"/>
<path d="M1527.9 487.133H1525.12V492.235H1527.9V487.133Z" fill="#5F9060"/>
<path d="M1531.79 490.533H1529.01V495.635H1531.79V490.533Z" fill="#5F9060"/>
<path d="M1535.96 487.415H1533.18V492.517H1535.96V487.415Z" fill="#5F9060"/>
<path d="M1534.57 482.881H1531.79V487.983H1534.57V482.881Z" fill="#5F9060"/>
<path d="M1530.4 491.667C1532.4 491.667 1534.01 490.017 1534.01 487.982C1534.01 485.947 1532.4 484.298 1530.4 484.298C1528.4 484.298 1526.79 485.947 1526.79 487.982C1526.79 490.017 1528.4 491.667 1530.4 491.667Z" fill="#3E4F66"/>
<path d="M1529.49 495.647C1529.53 495.156 1529.88 494.784 1530.3 494.784C1530.8 494.784 1531.18 495.295 1531.12 495.871L1529.73 508.608C1529.62 509.593 1529.61 510.588 1529.71 511.574L1531.13 526.019C1531.18 526.592 1530.8 527.095 1530.31 527.095C1529.89 527.095 1529.53 526.718 1529.49 526.221L1528.3 511.644C1528.22 510.61 1528.22 509.569 1528.32 508.537L1529.49 495.647Z" fill="#3E4F66"/>
<path d="M256.359 506.136C256.359 508.719 254.151 510.813 251.771 510.813C249.391 510.813 247.462 508.719 247.462 506.136C247.462 503.553 249.391 501.459 251.771 501.459C254.151 501.459 256.359 503.553 256.359 506.136Z" fill="#5F9060"/>
<path d="M270.538 506.136C270.538 508.719 268.609 510.813 266.229 510.813C263.849 510.813 261.919 508.719 261.919 506.136C261.641 503.16 263.849 501.459 266.229 501.459C268.609 501.459 270.538 503.553 270.538 506.136Z" fill="#5F9060"/>
<path d="M267.48 514.922C267.48 517.505 265.55 519.599 263.17 519.599C260.79 519.599 258.861 517.505 258.861 514.922C258.861 512.339 260.79 509.962 263.17 509.962C265.55 509.962 267.48 512.339 267.48 514.922Z" fill="#5F9060"/>
<path d="M259.139 514.498C259.139 517.08 256.931 519.599 254.551 519.599C252.171 519.599 250.242 517.505 250.242 514.922C250.242 512.339 252.171 510.246 254.551 510.246C256.931 510.246 259.139 511.915 259.139 514.498Z" fill="#5F9060"/>
<path d="M259 505.711C261.38 505.711 263.31 503.618 263.31 501.035C263.31 498.452 261.38 496.358 259 496.358C256.62 496.358 254.69 498.452 254.69 501.035C254.69 503.618 256.62 505.711 259 505.711Z" fill="#5F9060"/>
<path d="M257.749 502.877H254.969V507.978H257.749V502.877Z" fill="#5F9060"/>
<rect width="11.5087" height="1.99485" transform="matrix(-1 0 0 1 1113.51 422.559)" fill="#8A919D"/>
<path d="M1103 426.702C1103.55 426.702 1104 426.256 1104 425.705V422.559H1102V425.705C1102 426.256 1102.45 426.702 1103 426.702Z" fill="#8A919D"/>
<path d="M1161.23 412.048L1137.14 406.907L1111.36 412.048V386.335C1111.36 384.32 1111.8 382.329 1112.65 380.5C1114 377.582 1116.32 375.224 1119.22 373.828L1119.8 373.546C1122.02 372.477 1124.46 371.945 1126.92 371.992L1148.16 372.399C1150.2 372.437 1152.2 372.954 1154 373.905C1156.55 375.255 1158.58 377.414 1159.77 380.044L1159.96 380.457C1160.8 382.315 1161.23 384.331 1161.23 386.37V412.048Z" fill="#EBEBEB"/>
<path d="M1161.23 410.053L1160.16 410.36L1136.99 414.043L1111.36 410.053V435.595C1111.36 437.723 1111.82 439.825 1112.72 441.756C1114.03 444.587 1116.21 446.926 1118.94 448.433L1119.33 448.649C1121.7 449.955 1124.37 450.64 1127.07 450.64H1146.84C1149.57 450.64 1152.24 449.843 1154.53 448.346C1156.75 446.888 1158.52 444.827 1159.61 442.404L1159.83 441.931C1160.75 439.884 1161.23 437.662 1161.23 435.415V410.053Z" fill="#3C4B62"/>
<path d="M1161.23 410.168C1161.23 412.329 1149.91 414.733 1136.03 414.733C1122.14 414.733 1111.36 412.329 1111.36 410.168C1111.36 408.007 1122.14 406.907 1136.03 406.907C1149.91 406.907 1161.23 408.007 1161.23 410.168Z" fill="#556987"/>
<path d="M1155.1 374.778C1155.1 376.642 1146.53 377.752 1136.02 377.752C1125.51 377.752 1117.65 376.883 1117.65 375.019C1117.65 373.154 1125.51 371 1136.02 371C1146.53 371 1155.1 372.913 1155.1 374.778Z" fill="#AFAFAF"/>
<path d="M1153.25 374.564C1153.25 375.793 1145.57 376.524 1136.13 376.524C1126.7 376.524 1119.65 375.952 1119.65 374.723C1119.65 373.494 1126.7 372.074 1136.13 372.074C1145.57 372.074 1153.25 373.335 1153.25 374.564Z" fill="#EBEBEB"/>
<path d="M1162 426.898C1162 426.238 1161.4 425.742 1160.75 425.865L1149.88 427.93L1136.86 428.697L1123.18 427.93L1112.01 426.058C1111.39 425.953 1110.82 426.434 1110.82 427.065C1110.82 427.564 1111.18 427.99 1111.68 428.073L1123.18 430.001L1136.86 430.769L1149.65 430.001L1161.14 427.932C1161.64 427.842 1162 427.406 1162 426.898Z" fill="#8A919D"/>
<path d="M1162 397.589C1162 396.93 1161.4 396.433 1160.75 396.556L1149.88 398.621L1136.86 399.388L1123.18 398.621L1112.01 396.749C1111.39 396.645 1110.82 397.125 1110.82 397.757C1110.82 398.255 1111.18 398.681 1111.68 398.764L1123.18 400.693L1136.86 401.46L1149.65 400.693L1161.14 398.623C1161.64 398.533 1162 398.097 1162 397.589Z" fill="#8A919D"/>
<path d="M256.358 507.129H253.578V512.23H256.358V507.129Z" fill="#5F9060"/>
<path d="M260.252 510.529H257.471V515.631H260.252V510.529Z" fill="#5F9060"/>
<path d="M264.421 507.411H261.641V512.513H264.421V507.411Z" fill="#5F9060"/>
<path d="M263.031 502.877H260.251V507.978H263.031V502.877Z" fill="#5F9060"/>
<path d="M258.861 511.663C260.857 511.663 262.476 510.013 262.476 507.978C262.476 505.943 260.857 504.293 258.861 504.293C256.865 504.293 255.247 505.943 255.247 507.978C255.247 510.013 256.865 511.663 258.861 511.663Z" fill="#3E4F66"/>
<path d="M257.949 515.642C257.993 515.152 258.345 514.78 258.764 514.78C259.258 514.78 259.639 515.291 259.577 515.867L258.188 528.604C258.081 529.589 258.076 530.584 258.172 531.569L259.589 546.015C259.646 546.587 259.264 547.091 258.773 547.091C258.35 547.091 257.996 546.713 257.955 546.217L256.764 531.64C256.679 530.606 256.684 529.565 256.778 528.532L257.949 515.642Z" fill="#3E4F66"/>
<path d="M741.052 484.277C741.052 486.988 743.369 489.187 745.869 489.187C748.368 489.187 750.394 486.988 750.394 484.277C750.394 481.565 748.368 479.366 745.869 479.366C743.369 479.366 741.052 481.565 741.052 484.277Z" fill="#5F9060"/>
<path d="M726.163 484.277C726.163 486.988 728.188 489.187 730.688 489.187C733.187 489.187 735.213 486.988 735.213 484.277C735.505 481.152 733.187 479.366 730.688 479.366C728.188 479.366 726.163 481.565 726.163 484.277Z" fill="#5F9060"/>
<path d="M729.374 493.502C729.374 496.215 731.4 498.413 733.899 498.413C736.398 498.413 738.424 496.215 738.424 493.502C738.424 490.791 736.398 488.294 733.899 488.294C731.4 488.294 729.374 490.791 729.374 493.502Z" fill="#5F9060"/>
<path d="M738.132 493.056C738.132 495.768 740.45 498.413 742.949 498.413C745.448 498.413 747.474 496.215 747.474 493.502C747.474 490.791 745.448 488.592 742.949 488.592C740.45 488.592 738.132 490.344 738.132 493.056Z" fill="#5F9060"/>
<path d="M738.278 483.831C735.779 483.831 733.753 481.632 733.753 478.92C733.753 476.208 735.779 474.01 738.278 474.01C740.777 474.01 742.803 476.208 742.803 478.92C742.803 481.632 740.777 483.831 738.278 483.831Z" fill="#5F9060"/>
<path d="M739.591 480.854H742.511V486.211H739.591V480.854Z" fill="#5F9060"/>
<path d="M741.052 485.318H743.971V490.675H741.052V485.318Z" fill="#5F9060"/>
<path d="M736.964 488.89H739.884V494.247H736.964V488.89Z" fill="#5F9060"/>
<path d="M732.586 485.616H735.505V490.972H732.586V485.616Z" fill="#5F9060"/>
<path d="M734.044 480.854H736.964V486.211H734.044V480.854Z" fill="#5F9060"/>
<path d="M738.424 490.08C736.328 490.08 734.628 488.348 734.628 486.211C734.628 484.074 736.328 482.342 738.424 482.342C740.52 482.342 742.219 484.074 742.219 486.211C742.219 488.348 740.52 490.08 738.424 490.08Z" fill="#3E4F66"/>
<path d="M737.183 494.259C737.23 493.743 737.599 493.354 738.039 493.354C738.558 493.354 738.959 493.889 738.893 494.495L737.435 507.869C737.323 508.901 737.317 509.947 737.418 510.982L738.906 526.148C738.965 526.752 738.565 527.28 738.049 527.28C737.605 527.28 737.233 526.882 737.191 526.362L735.939 511.056C735.851 509.971 735.856 508.878 735.954 507.793L737.183 494.259Z" fill="#3E4F66"/>
<path d="M609.255 464.678C609.255 466.874 607.379 468.653 605.355 468.653C603.332 468.653 601.692 466.874 601.692 464.678C601.692 462.483 603.332 460.703 605.355 460.703C607.379 460.703 609.255 462.483 609.255 464.678Z" fill="#5F9060"/>
<path d="M621.308 464.678C621.308 466.874 619.668 468.653 617.644 468.653C615.621 468.653 613.981 466.874 613.981 464.678C613.745 462.148 615.621 460.703 617.644 460.703C619.668 460.703 621.308 462.483 621.308 464.678Z" fill="#5F9060"/>
<path d="M618.708 472.147C618.708 474.342 617.068 476.121 615.044 476.121C613.021 476.121 611.381 474.342 611.381 472.147C611.381 469.951 613.021 467.93 615.044 467.93C617.068 467.93 618.708 469.951 618.708 472.147Z" fill="#5F9060"/>
<path d="M611.618 471.785C611.618 473.981 609.742 476.121 607.719 476.121C605.695 476.121 604.055 474.342 604.055 472.147C604.055 469.951 605.695 468.171 607.719 468.171C609.742 468.171 611.618 469.59 611.618 471.785Z" fill="#5F9060"/>
<path d="M611.5 464.316C613.523 464.316 615.163 462.536 615.163 460.341C615.163 458.146 613.523 456.366 611.5 456.366C609.477 456.366 607.837 458.146 607.837 460.341C607.837 462.536 609.477 464.316 611.5 464.316Z" fill="#5F9060"/>
<path d="M610.437 461.908H608.073V466.244H610.437V461.908Z" fill="#5F9060"/>
<path d="M609.254 465.521H606.891V469.858H609.254V465.521Z" fill="#5F9060"/>
<path d="M612.563 468.412H610.2V472.749H612.563V468.412Z" fill="#5F9060"/>
<path d="M616.108 465.762H613.745V470.099H616.108V465.762Z" fill="#5F9060"/>
<path d="M614.926 461.908H612.563V466.244H614.926V461.908Z" fill="#5F9060"/>
<path d="M611.382 469.376C613.079 469.376 614.454 467.974 614.454 466.245C614.454 464.515 613.079 463.113 611.382 463.113C609.685 463.113 608.31 464.515 608.31 466.245C608.31 467.974 609.685 469.376 611.382 469.376Z" fill="#3E4F66"/>
<path d="M610.606 472.758C610.644 472.342 610.943 472.026 611.299 472.026C611.719 472.026 612.043 472.46 611.99 472.949L610.81 483.776C610.719 484.612 610.714 485.458 610.796 486.297L612.001 498.574C612.049 499.062 611.724 499.49 611.307 499.49C610.947 499.49 610.646 499.168 610.612 498.747L609.599 486.357C609.527 485.478 609.531 484.592 609.611 483.715L610.606 472.758Z" fill="#3E4F66"/>
<path d="M376.053 470.559C376.053 472.755 377.929 474.535 379.952 474.535C381.975 474.535 383.615 472.755 383.615 470.559C383.615 468.364 381.975 466.584 379.952 466.584C377.929 466.584 376.053 468.364 376.053 470.559Z" fill="#5F9060"/>
<path d="M364 470.559C364 472.755 365.64 474.535 367.663 474.535C369.686 474.535 371.326 472.755 371.326 470.559C371.563 468.029 369.686 466.584 367.663 466.584C365.64 466.584 364 468.364 364 470.559Z" fill="#5F9060"/>
<path d="M366.6 478.028C366.6 480.223 368.24 482.002 370.263 482.002C372.286 482.002 373.926 480.223 373.926 478.028C373.926 475.832 372.286 473.811 370.263 473.811C368.24 473.811 366.6 475.832 366.6 478.028Z" fill="#5F9060"/>
<path d="M373.69 477.666C373.69 479.862 375.566 482.002 377.589 482.002C379.612 482.002 381.252 480.223 381.252 478.028C381.252 475.832 379.612 474.052 377.589 474.052C375.566 474.052 373.69 475.471 373.69 477.666Z" fill="#5F9060"/>
<path d="M373.808 470.198C371.785 470.198 370.145 468.418 370.145 466.223C370.145 464.027 371.785 462.248 373.808 462.248C375.831 462.248 377.471 464.027 377.471 466.223C377.471 468.418 375.831 470.198 373.808 470.198Z" fill="#5F9060"/>
<path d="M374.872 467.789H377.235V472.125H374.872V467.789Z" fill="#5F9060"/>
<path d="M376.053 471.402H378.416V475.739H376.053V471.402Z" fill="#5F9060"/>
<path d="M372.744 474.293H375.107V478.63H372.744V474.293Z" fill="#5F9060"/>
<path d="M369.199 471.643H371.562V475.98H369.199V471.643Z" fill="#5F9060"/>
<path d="M370.381 467.789H372.744V472.125H370.381V467.789Z" fill="#5F9060"/>
<path d="M373.926 475.257C372.229 475.257 370.853 473.855 370.853 472.125C370.853 470.396 372.229 468.993 373.926 468.993C375.623 468.993 376.998 470.396 376.998 472.125C376.998 473.855 375.623 475.257 373.926 475.257Z" fill="#3E4F66"/>
<path d="M374.701 478.64C374.663 478.223 374.365 477.907 374.009 477.907C373.589 477.907 373.264 478.341 373.317 478.83L374.497 489.657C374.589 490.493 374.593 491.339 374.511 492.178L373.307 504.455C373.259 504.943 373.583 505.372 374 505.372C374.36 505.372 374.661 505.049 374.695 504.628L375.708 492.238C375.78 491.359 375.776 490.473 375.697 489.596L374.701 478.64Z" fill="#3E4F66"/>
<path d="M88.748 474.352C88.748 476.927 90.9481 479.014 93.3203 479.014C95.6925 479.014 97.6155 476.927 97.6155 474.352C97.6155 471.779 95.6925 469.692 93.3203 469.692C90.9481 469.692 88.748 471.779 88.748 474.352Z" fill="#5F9060"/>
<path d="M74.6157 474.352C74.6157 476.927 76.5387 479.014 78.9109 479.014C81.283 479.014 83.2061 476.927 83.2061 474.352C83.4832 471.387 81.283 469.692 78.9109 469.692C76.5387 469.692 74.6157 471.779 74.6157 474.352Z" fill="#5F9060"/>
<path d="M77.6636 483.11C77.6636 485.684 79.5866 487.771 81.9588 487.771C84.3309 487.771 86.254 485.684 86.254 483.11C86.254 480.536 84.3309 478.167 81.9588 478.167C79.5866 478.167 77.6636 480.536 77.6636 483.11Z" fill="#5F9060"/>
<path d="M85.9775 482.686C85.9775 485.26 88.1776 487.771 90.5497 487.771C92.9219 487.771 94.8449 485.684 94.8449 483.109C94.8449 480.536 92.9219 478.449 90.5497 478.449C88.1776 478.449 85.9775 480.112 85.9775 482.686Z" fill="#5F9060"/>
<path d="M86.1155 473.929C83.7433 473.929 81.8203 471.842 81.8203 469.268C81.8203 466.694 83.7433 464.607 86.1155 464.607C88.4876 464.607 90.4106 466.694 90.4106 469.268C90.4106 471.842 88.4876 473.929 86.1155 473.929Z" fill="#5F9060"/>
<path d="M87.3627 471.105H90.1338V476.189H87.3627V471.105Z" fill="#5F9060"/>
<path d="M88.748 475.341H91.519V480.426H88.748V475.341Z" fill="#5F9060"/>
<path d="M84.8686 478.731H87.6396V483.816H84.8686V478.731Z" fill="#5F9060"/>
<path d="M80.7123 475.624H83.4834V480.708H80.7123V475.624Z" fill="#5F9060"/>
<path d="M82.0981 471.105H84.8691V476.189H82.0981V471.105Z" fill="#5F9060"/>
<path d="M86.2545 479.862C84.265 479.862 82.6521 478.218 82.6521 476.19C82.6521 474.161 84.265 472.517 86.2545 472.517C88.2441 472.517 89.8569 474.161 89.8569 476.19C89.8569 478.218 88.2441 479.862 86.2545 479.862Z" fill="#3E4F66"/>
<path d="M87.1633 483.828C87.119 483.339 86.7686 482.968 86.351 482.968C85.8586 482.968 85.4781 483.477 85.5407 484.051L86.9244 496.746C87.0313 497.727 87.0366 498.719 86.9402 499.701L85.528 514.098C85.4719 514.67 85.852 515.172 86.3414 515.172C86.7633 515.172 87.1161 514.794 87.1565 514.3L88.3442 499.772C88.4284 498.741 88.4237 497.704 88.3303 496.675L87.1633 483.828Z" fill="#3E4F66"/>
<path d="M449.098 499.079C449.098 501.662 451.306 503.755 453.686 503.755C456.066 503.755 457.996 501.662 457.996 499.079C457.996 496.496 456.066 494.402 453.686 494.402C451.306 494.402 449.098 496.496 449.098 499.079Z" fill="#5F9060"/>
<path d="M434.918 499.079C434.918 501.662 436.848 503.755 439.228 503.755C441.608 503.755 443.538 501.662 443.538 499.079C443.816 496.103 441.608 494.402 439.228 494.402C436.848 494.402 434.918 496.496 434.918 499.079Z" fill="#5F9060"/>
<path d="M437.977 507.865C437.977 510.448 439.907 512.542 442.287 512.542C444.667 512.542 446.596 510.448 446.596 507.865C446.596 505.282 444.667 502.905 442.287 502.905C439.907 502.905 437.977 505.282 437.977 507.865Z" fill="#5F9060"/>
<path d="M446.318 507.44C446.318 510.022 448.525 512.542 450.906 512.542C453.286 512.542 455.215 510.448 455.215 507.865C455.215 505.282 453.286 503.188 450.906 503.188C448.525 503.188 446.318 504.857 446.318 507.44Z" fill="#5F9060"/>
<path d="M446.458 498.654C444.077 498.654 442.148 496.56 442.148 493.977C442.148 491.395 444.077 489.301 446.458 489.301C448.838 489.301 450.767 491.395 450.767 493.977C450.767 496.56 448.838 498.654 446.458 498.654Z" fill="#5F9060"/>
<path d="M447.709 495.819H450.489V500.921H447.709V495.819Z" fill="#5F9060"/>
<path d="M449.099 500.071H451.879V505.173H449.099V500.071Z" fill="#5F9060"/>
<path d="M445.205 503.472H447.986V508.574H445.205V503.472Z" fill="#5F9060"/>
<path d="M441.036 500.354H443.816V505.455H441.036V500.354Z" fill="#5F9060"/>
<path d="M442.426 495.819H445.206V500.921H442.426V495.819Z" fill="#5F9060"/>
<path d="M446.596 504.606C444.6 504.606 442.982 502.956 442.982 500.921C442.982 498.886 444.6 497.237 446.596 497.237C448.593 497.237 450.211 498.886 450.211 500.921C450.211 502.956 448.593 504.606 446.596 504.606Z" fill="#3E4F66"/>
<path d="M447.508 508.585C447.464 508.094 447.112 507.723 446.693 507.723C446.199 507.723 445.818 508.233 445.88 508.81L447.269 521.547C447.376 522.531 447.381 523.526 447.285 524.512L445.868 538.957C445.811 539.53 446.193 540.034 446.684 540.034C447.107 540.034 447.461 539.656 447.502 539.16L448.693 524.583C448.778 523.549 448.773 522.508 448.679 521.475L447.508 508.585Z" fill="#3E4F66"/>
<path d="M674.74 189.914C673.642 191.171 673.747 193.141 674.961 194.069C677.891 197.056 682.566 196.871 685.69 193.645L718.101 160.173L738.278 141.259C745.88 134.133 753.985 127.716 762.5 122.082C772.296 115.601 782.587 110.187 793.218 105.921L795.946 104.827C810.193 99.1108 824.873 95.1925 839.695 93.1496L842.843 92.7157C857.997 90.6271 873.195 90.2681 888.195 91.6444L902.648 92.9706L931.282 98.4259L972.195 112.314L1009.38 131.28L1042.85 155.326L1071.31 182.682L1088.77 203.374L1105 227.488L1116.18 249.725L1118.29 254.001L1120.57 259.438L1125.54 273.464L1127.85 284.05L1129.58 294.636L1130.88 311.103L1130.5 325.218L1130.83 331.153C1131.19 337.517 1139.14 338.319 1141.3 332.209C1141.56 331.475 1141.69 330.704 1141.69 329.935V304.634L1140.54 287.579L1137.65 273.464L1132.32 258.603L1130.88 253.73C1130.62 252.879 1130.31 252.055 1129.95 251.262L1119.73 229.075L1105.18 205.587L1085.57 180.221L1070.73 164.696C1060.23 153.707 1048.91 143.701 1036.89 134.767C1025.78 126.517 1014.1 119.203 1001.93 112.882L976.677 99.763L934.075 85.249C906.913 79.4663 878.847 76.909 850.794 77.6074L829.473 81.2896C815.219 83.751 801.16 88.0533 787.587 94.1071C776.98 98.8376 766.723 104.615 756.944 111.364L741.206 122.228L707.509 152.366L674.74 189.914Z" fill="#3C4B62"/>
<path d="M739.238 192.523C740.754 189.813 738.72 186.564 735.978 187.317L727.429 189.664L715.458 191.893L702.854 193.018C697.894 193.46 693.013 192.205 688.861 189.421C682.877 185.407 678.912 178.56 678.012 170.687L676.613 158.442L674.455 145.993L672.537 133.258C672.426 132.52 672.187 131.821 671.833 131.2C670.638 129.102 668.32 128.189 666.108 128.947L665.593 129.122C664.36 129.544 663.259 130.391 662.452 131.538L662.095 132.045C661.2 133.316 660.624 134.821 660.429 136.393L659.071 147.364L658.611 177.408L659.721 195.777C659.906 198.833 660.683 201.77 662 204.39L662.152 204.692C663.152 206.681 664.477 208.431 666.061 209.858C668.429 211.989 671.304 213.331 674.381 213.74L675.473 213.886C677.587 214.167 679.744 214.087 681.871 213.649L686.527 212.688L714.514 205.248L728.283 199.625L737.945 193.872C738.473 193.558 738.92 193.091 739.238 192.523Z" fill="#3C4B62"/>
<path d="M560.209 419.095C560.172 418.946 560.154 418.792 560.154 418.638C560.154 418.413 560.193 418.19 560.269 417.984L560.3 417.898C560.343 417.782 560.401 417.675 560.471 417.578L560.511 417.525C560.686 417.287 560.941 417.149 561.209 417.149H561.665C562.064 417.149 562.462 417.194 562.853 417.283L563.476 417.424C563.513 417.433 563.548 417.445 563.582 417.463L563.859 417.603C564.249 417.803 564.618 417.275 564.375 416.863L563.531 415.428L563.509 415.399C563.384 415.229 563.293 415.029 563.24 414.814L563.212 414.701C563.145 414.43 563.161 414.139 563.257 413.879C563.299 413.765 563.355 413.659 563.424 413.565L563.567 413.371C563.682 413.215 563.828 413.095 563.991 413.021C564.238 412.909 564.512 412.909 564.759 413.021C564.923 413.095 565.068 413.215 565.183 413.371L565.431 413.707C565.992 414.471 566.502 415.286 566.953 416.146L567.33 416.863L568.335 419.047C568.369 419.12 568.397 419.197 568.42 419.276L568.576 419.806C568.854 420.748 569.915 420.94 570.42 420.14C570.471 420.059 570.529 419.986 570.595 419.923L571.469 419.073C571.805 418.748 572.163 418.455 572.54 418.199L572.715 418.081C573.064 417.843 573.433 417.648 573.817 417.5C574.413 417.268 575.038 417.149 575.666 417.149H575.773H576.117C576.308 417.149 576.498 417.191 576.676 417.271L576.798 417.327C576.956 417.398 577.098 417.516 577.209 417.667C577.372 417.888 577.461 418.171 577.461 418.464V418.584V419.017C577.461 419.293 577.377 419.559 577.224 419.767C577.103 419.932 576.946 420.052 576.77 420.114L574.881 420.791C573.671 421.223 572.59 422.049 571.763 423.174L571.444 423.694C570.957 424.489 570.589 425.377 570.358 426.319C570.17 427.087 570.074 427.883 570.074 428.683V428.809C570.074 429.259 570.101 429.709 570.156 430.155L570.285 431.207L568.808 431.78L567.33 431.207L567.451 430.223C567.511 429.732 567.541 429.237 567.541 428.741V428.524C567.541 427.829 567.469 427.136 567.328 426.461L567.285 426.258C567.175 425.733 567.012 425.227 566.801 424.749C566.592 424.275 566.336 423.831 566.038 423.427L565.325 422.456C564.976 421.982 564.561 421.58 564.099 421.266C563.722 421.009 563.317 420.814 562.895 420.687L561.808 420.359C561.691 420.324 561.57 420.305 561.448 420.305H561.223C560.946 420.305 560.683 420.164 560.502 419.918C560.412 419.796 560.345 419.651 560.307 419.494L560.209 419.095Z" fill="#5F9060"/>
<path d="M569.953 472.626C569.559 473.878 568.045 473.851 567.684 472.584L567.665 472.519L564.164 452.15L561.631 438.092C561.074 433.393 564.176 429.198 568.21 429.198H569.03C573.114 429.198 576.325 433.306 575.984 438.092L573.153 453.44L570.006 472.406C569.993 472.481 569.976 472.554 569.953 472.626Z" fill="#C77700"/>
<path d="M494.439 421.447C494.403 421.299 494.384 421.145 494.384 420.991C494.384 420.766 494.423 420.542 494.499 420.337L494.531 420.251C494.574 420.134 494.631 420.027 494.702 419.931L494.741 419.878C494.917 419.639 495.172 419.502 495.44 419.502H495.895C496.294 419.502 496.692 419.546 497.084 419.636L497.706 419.777C497.743 419.785 497.779 419.798 497.813 419.816L498.089 419.956C498.48 420.155 498.848 419.627 498.606 419.216L497.761 417.781L497.74 417.751C497.615 417.582 497.523 417.382 497.47 417.167L497.442 417.054C497.376 416.782 497.391 416.492 497.487 416.232C497.529 416.118 497.585 416.012 497.655 415.918L497.798 415.723C497.912 415.567 498.058 415.447 498.222 415.373C498.469 415.261 498.743 415.261 498.99 415.373C499.153 415.447 499.299 415.567 499.414 415.723L499.661 416.06C500.223 416.823 500.732 417.638 501.184 418.498L501.561 419.216L502.565 421.4C502.599 421.473 502.628 421.549 502.651 421.628L502.807 422.159C503.084 423.101 504.145 423.292 504.65 422.493C504.701 422.411 504.76 422.339 504.826 422.275L505.7 421.426C506.035 421.1 506.394 420.807 506.771 420.552L506.945 420.433C507.294 420.195 507.664 420 508.047 419.852C508.644 419.62 509.268 419.502 509.897 419.502H510.003H510.347C510.538 419.502 510.728 419.544 510.907 419.624L511.028 419.679C511.187 419.751 511.328 419.868 511.439 420.019C511.602 420.24 511.692 420.524 511.692 420.816V420.936V421.369C511.692 421.646 511.608 421.912 511.454 422.12C511.334 422.284 511.176 422.404 511 422.467L509.111 423.143C507.901 423.576 506.82 424.402 505.993 425.526L505.674 426.046C505.187 426.841 504.82 427.729 504.589 428.671C504.4 429.439 504.305 430.236 504.305 431.036V431.161C504.305 431.612 504.332 432.061 504.387 432.507L504.516 433.56L503.038 434.133L501.561 433.56L501.681 432.575C501.742 432.085 501.772 431.59 501.772 431.093V430.877C501.772 430.182 501.7 429.489 501.558 428.814L501.515 428.61C501.405 428.086 501.243 427.58 501.032 427.101C500.822 426.627 500.566 426.184 500.269 425.779L499.555 424.809C499.206 424.335 498.792 423.932 498.33 423.618C497.953 423.362 497.547 423.167 497.125 423.04L496.039 422.711C495.921 422.676 495.8 422.657 495.679 422.657H495.453C495.176 422.657 494.913 422.516 494.732 422.27C494.642 422.148 494.576 422.003 494.537 421.847L494.439 421.447Z" fill="#5F9060"/>
<path d="M504.184 474.978C503.79 476.231 502.276 476.204 501.915 474.937L501.896 474.871L498.395 454.502L495.862 440.444C495.304 435.745 498.407 431.551 502.441 431.551H503.26C507.344 431.551 510.555 435.658 510.214 440.444L507.384 455.793L504.236 474.758C504.224 474.833 504.206 474.906 504.184 474.978Z" fill="#C77700"/>
<path d="M524.458 420.594C524.409 420.411 524.385 420.22 524.385 420.028C524.385 419.751 524.436 419.476 524.536 419.224L524.573 419.13C524.635 418.975 524.717 418.831 524.816 418.705L524.846 418.668C525.09 418.358 525.433 418.183 525.792 418.183H526.406C526.934 418.183 527.46 418.238 527.98 418.348L528.82 418.525C528.865 418.535 528.909 418.549 528.951 418.569L529.39 418.777C529.887 419.012 530.333 418.332 530.013 417.828L528.888 416.048L528.847 415.996C528.688 415.796 528.57 415.556 528.502 415.295L528.465 415.157C528.375 414.814 528.396 414.445 528.524 414.12C528.579 413.984 528.651 413.857 528.738 413.746L528.922 413.515C529.084 413.309 529.286 413.152 529.511 413.058C529.836 412.922 530.191 412.922 530.516 413.058C530.74 413.152 530.942 413.309 531.105 413.515L531.42 413.913C532.17 414.861 532.852 415.879 533.461 416.956L533.953 417.828L535.286 420.522C535.335 420.624 535.378 420.728 535.412 420.838L535.602 421.439C535.991 422.667 537.371 422.927 538.066 421.902C538.138 421.795 538.221 421.699 538.313 421.616L539.456 420.584C539.914 420.17 540.4 419.8 540.909 419.479L541.117 419.347C541.593 419.046 542.094 418.8 542.611 418.613C543.401 418.329 544.224 418.183 545.05 418.183H545.21H545.681C545.928 418.183 546.174 418.234 546.406 418.331L546.601 418.413C546.797 418.496 546.973 418.632 547.114 418.811C547.337 419.093 547.462 419.465 547.462 419.851V419.963V420.461C547.462 420.827 547.344 421.178 547.133 421.445C546.98 421.639 546.784 421.779 546.568 421.85L543.937 422.727C542.377 423.245 540.968 424.258 539.863 425.654L539.408 426.346C538.778 427.3 538.3 428.381 537.996 429.533C537.741 430.5 537.612 431.506 537.612 432.518V432.642C537.612 433.201 537.648 433.76 537.721 434.311L537.893 435.617L535.923 436.329L533.953 435.617L534.114 434.395C534.194 433.787 534.235 433.173 534.235 432.558V432.307C534.235 431.433 534.138 430.564 533.947 429.72L533.898 429.504C533.748 428.838 533.527 428.196 533.242 427.595C532.967 427.015 532.633 426.476 532.249 425.991L531.308 424.8C530.823 424.188 530.257 423.674 529.63 423.278C529.137 422.967 528.612 422.731 528.068 422.578L526.588 422.162C526.433 422.119 526.274 422.096 526.115 422.096H525.771C525.425 422.096 525.095 421.928 524.86 421.629C524.732 421.469 524.637 421.276 524.582 421.066L524.458 420.594Z" fill="#5F9060"/>
<path d="M537.445 487.001C536.896 488.624 534.932 488.587 534.429 486.944L534.4 486.85L529.732 461.589L526.355 444.155C525.614 438.349 529.437 433.126 534.43 433.126H536.921C541.978 433.126 545.945 438.232 545.492 444.155L541.717 463.19L537.524 486.691C537.505 486.797 537.479 486.901 537.445 487.001Z" fill="#C77700"/>
<path d="M649.786 229.461C648.754 229.971 647.84 230.738 647.105 231.707L643.601 236.333C642.997 237.132 641.949 237.251 641.165 236.611C641 236.476 640.818 236.371 640.626 236.302L640.184 236.14C638.769 235.625 637.257 235.897 636.1 236.874C635.704 237.21 635.36 237.618 635.081 238.086L634.42 239.194L621.333 259.291C620.539 260.511 620.239 262.082 620.506 263.625L620.517 263.69C620.763 265.114 621.487 266.394 622.527 267.243L633.397 278.583C633.823 279.027 633.642 279.821 633.092 279.919L614.407 280.375C613.172 280.405 612.066 279.37 611.821 277.955C611.745 277.515 611.582 277.096 611.344 276.734L609.809 274.388L609.234 273.918C608.538 273.35 607.773 272.911 606.968 272.619L606.173 272.328C605.536 272.096 604.869 272.036 604.223 272.153L603.562 272.272C602.881 272.394 602.282 272.826 601.896 273.474C601.585 273.995 601.431 274.626 601.456 275.274L602.223 294.686C602.236 295.016 602.27 295.346 602.327 295.671L602.626 297.399C602.728 297.991 603.028 298.521 603.46 298.874C604.047 299.353 604.798 299.44 605.423 299.101L606.197 298.681L608.199 297.35L609.501 296.249C610.251 295.616 610.903 294.842 611.43 293.958C612.972 291.371 615.509 289.829 618.281 289.791L633.369 289.587L641.169 289.481C642.432 289.463 643.684 289.92 644.739 290.782L649.886 296.335L647.144 240.145L649.157 237.929C650.152 236.834 651.31 235.953 652.58 235.325C654.685 234.284 657.03 233.969 659.342 234.418L660.134 234.573L660.818 234.821C662.338 235.375 663.781 236.203 665.094 237.276L665.84 237.885C667.252 239.037 668.427 240.544 669.271 242.284L669.318 242.38C669.873 243.524 670.268 244.755 670.488 246.027C670.805 247.863 670.75 249.74 670.327 251.507L669.423 255.287C669.375 255.487 669.299 255.674 669.199 255.842C668.685 256.705 667.645 256.891 666.872 256.261L647.144 240.145L648.345 264.764L649.886 296.335L651.84 297.046C652.514 297.291 653.22 297.355 653.904 297.232C654.978 297.039 655.937 296.397 656.601 295.424L673.466 270.753C674.145 269.76 674.576 268.565 674.714 267.288L674.888 265.688C674.986 264.788 674.767 263.864 674.28 263.119C673.584 262.056 673.452 260.656 673.94 259.508L675.386 256.096C675.869 254.958 676.144 253.708 676.197 252.423L676.283 250.32C676.35 248.677 676.241 247.02 675.959 245.39L675.747 244.163C675.273 241.42 674.255 238.815 672.775 236.554C671.753 234.992 670.527 233.621 669.145 232.492L667.668 231.285C666.796 230.573 665.87 229.959 664.901 229.451C662.826 228.364 660.596 227.788 658.357 227.758L656.135 227.728C654.306 227.705 652.509 228.114 650.855 228.931L649.786 229.461Z" fill="#3C4B62"/>
<path d="M562.05 341.317C562.438 339.888 563.785 338.73 565.06 338.73C566.334 338.73 567.053 339.888 566.666 341.317L563.816 351.823C563.429 353.251 562.081 354.408 560.807 354.408C559.532 354.408 558.813 353.251 559.201 351.823L562.05 341.317Z" fill="#3E4F66" fill-opacity="0.69"/>
<path d="M805 437.554H979L989 554H795L805 437.554Z" fill="#767676"/>
<path d="M888 437.554H896V472.841C896 473.49 895.552 474.017 895 474.017H889C888.448 474.017 888 473.49 888 472.841V437.554Z" fill="#E7E7E7"/>
<path d="M888.968 503.377C888.986 502.743 889.428 502.239 889.967 502.239H895C895.552 502.239 896 502.766 896 503.415V536.35C896 536.999 895.552 537.526 895 537.526H889.034C888.469 537.526 888.016 536.975 888.034 536.311L888.968 503.377Z" fill="#E7E7E7"/>
<path d="M805 437.554H813L803 554H795L805 437.554Z" fill="#E7E7E7"/>
<path d="M979 437.554H971L981 554H989L979 437.554Z" fill="#E7E7E7"/>
<path d="M1173 451.669H1099V459.902H1173V451.669Z" fill="#AEDBAB"/>
<path d="M1134 361.769C1134 360.239 1134.9 359 1136 359H1137C1138.1 359 1139 360.239 1139 361.769V376.699C1139 378.227 1138.1 377 1137 377H1136C1134.9 377 1134 378.029 1134 376.5V361.769Z" fill="#AFAFAF"/>
<path d="M1134 368.15C1136.18 369.519 1136.78 369.519 1139 368.15V369.239C1137.31 370.958 1136.22 370.888 1134 369.239V368.15Z" fill="#D9D9D9"/>
</svg>
