<svg width="1340" height="497" viewBox="0 0 1340 497" fill="none" xmlns="http://www.w3.org/2000/svg">
<path d="M1036.15 145.994H1185.72L1274.44 225.994H1117.27L1036.15 145.994Z" fill="#3E4F66"/>
<path d="M1247.4 216.127L1178 154.994L1100 227L971.376 216.127V344.634H1247.4V216.127Z" fill="#E5E5E5"/>
<path d="M1100.76 217.127H971.376V345.634H1100.76V217.127Z" fill="#D0CCCC"/>
<rect width="30.1897" height="53.8899" transform="matrix(-1 0 0 1 1195.64 290.744)" fill="#3E4F66"/>
<rect width="30.1897" height="20.7269" transform="matrix(-1 0 0 1 1049.01 236.854)" fill="#3E4F66"/>
<rect width="17.2512" height="29.0176" transform="matrix(-1 0 0 1 1187.02 187.109)" fill="#3E4F66"/>
<path d="M1103.4 226.008C1104.58 226 1105.52 227.022 1105.4 228.203L1105.2 230.189C1105.1 231.213 1104.24 231.994 1103.21 231.994L948.385 231.994C947.28 231.994 946.385 231.098 946.385 229.994V228.981C946.385 227.882 947.273 226.988 948.372 226.981L1103.4 226.008Z" fill="#AFAFAF"/>
<path d="M961.389 226.994C960.043 229.147 960.043 229.737 961.389 231.924H960.318C958.63 230.258 958.697 229.181 960.318 226.994H961.389Z" fill="#FAFAFA"/>
<path d="M949.851 226.994C948.504 229.147 948.504 229.737 949.851 231.924H948.779C947.091 230.258 947.158 229.181 948.779 226.994H949.851Z" fill="#FAFAFA"/>
<path d="M974.082 226.994C972.735 229.147 972.735 229.737 974.082 231.924H973.01C971.322 230.258 971.389 229.181 973.01 226.994H974.082Z" fill="#FAFAFA"/>
<path d="M986.774 226.994C985.428 229.147 985.428 229.737 986.774 231.924H985.703C984.014 230.258 984.082 229.181 985.703 226.994H986.774Z" fill="#FAFAFA"/>
<path d="M999.466 226.994C998.12 229.147 998.12 229.737 999.466 231.924H998.395C996.707 230.258 996.774 229.181 998.395 226.994H999.466Z" fill="#FAFAFA"/>
<path d="M1012.16 226.994C1010.81 229.147 1010.81 229.737 1012.16 231.924H1011.09C1009.4 230.258 1009.47 229.181 1011.09 226.994H1012.16Z" fill="#FAFAFA"/>
<path d="M1024.85 226.994C1023.5 229.147 1023.5 229.737 1024.85 231.924H1023.78C1022.09 230.258 1022.16 229.181 1023.78 226.994H1024.85Z" fill="#FAFAFA"/>
<path d="M1037.54 226.994C1036.2 229.147 1036.2 229.737 1037.54 231.924H1036.47C1034.78 230.258 1034.85 229.181 1036.47 226.994H1037.54Z" fill="#FAFAFA"/>
<path d="M1050.24 226.994C1048.89 229.147 1048.89 229.737 1050.24 231.924H1049.16C1047.48 230.258 1047.54 229.181 1049.16 226.994H1050.24Z" fill="#FAFAFA"/>
<path d="M1062.93 226.994C1061.58 229.147 1061.58 229.737 1062.93 231.924H1061.86C1060.17 230.258 1060.24 229.181 1061.86 226.994H1062.93Z" fill="#FAFAFA"/>
<path d="M1075.62 226.994C1074.27 229.147 1074.27 229.737 1075.62 231.924H1074.55C1072.86 230.258 1072.93 229.181 1074.55 226.994H1075.62Z" fill="#FAFAFA"/>
<path d="M1088.31 226.994C1086.97 229.147 1086.97 229.737 1088.31 231.924H1087.24C1085.55 230.258 1085.62 229.181 1087.24 226.994H1088.31Z" fill="#FAFAFA"/>
<path d="M1101 226.994C1099.66 229.147 1099.66 229.737 1101 231.924H1099.93C1098.25 230.258 1098.31 229.181 1099.93 226.994H1101Z" fill="#FAFAFA"/>
<path d="M872.357 282.634C872.357 301.75 852.588 317.248 828.202 317.248C803.816 317.248 784.047 301.75 784.047 282.634C784.047 263.517 803.816 248.02 828.202 248.02C852.588 248.02 872.357 263.517 872.357 282.634Z" fill="#5F9060"/>
<path d="M828.202 169.141L838.014 348.504H818.39L822.537 209.285L828.202 169.141Z" fill="#3E4F66"/>
<path d="M812.987 269.448L828.15 294.972L819.331 300.49L813.266 278.469L812.987 269.448Z" fill="#3E4F66"/>
<path d="M850.147 252.63L834.509 277.677L828.202 268.035L843.391 255.158L850.147 252.63Z" fill="#3E4F66"/>
<path d="M852.733 194.314C852.733 209.955 840.652 222.635 825.749 222.635C810.847 222.635 798.766 209.955 798.766 194.314C798.766 178.673 810.847 165.994 825.749 165.994C840.652 165.994 852.733 178.673 852.733 194.314Z" fill="#5F9060"/>
<path d="M864.998 235.222C864.998 254.339 848.524 269.836 828.202 269.836C807.88 269.836 791.406 254.339 791.406 235.222C791.406 216.105 807.88 200.608 828.202 200.608C848.524 200.608 864.998 216.105 864.998 235.222Z" fill="#5F9060"/>
<path d="M174.615 282.624C174.615 304.362 153.435 321.983 127.308 321.983C101.18 321.983 80 304.362 80 282.624C80 260.887 101.18 243.265 127.308 243.265C153.435 243.265 174.615 260.887 174.615 282.624Z" fill="#5F9060"/>
<path d="M127.307 153.572L137.82 357.525H116.795L121.238 199.22L127.307 153.572Z" fill="#3E4F66"/>
<path d="M110.004 250.873L126.418 285.457L119.916 289.774L111.584 261.769L110.004 250.873Z" fill="#3E4F66"/>
<path d="M153.32 285.61L133.221 296.605V287.46L148.042 284.657L153.32 285.61Z" fill="#3E4F66"/>
<path d="M153.59 182.197C153.59 199.982 140.647 214.4 124.68 214.4C108.713 214.4 95.7696 199.982 95.7696 182.197C95.7696 164.412 108.713 149.994 124.68 149.994C140.647 149.994 153.59 164.412 153.59 182.197Z" fill="#5F9060"/>
<path d="M166.731 228.713C166.731 250.45 149.08 268.072 127.308 268.072C105.535 268.072 87.8845 250.45 87.8845 228.713C87.8845 206.975 105.535 189.353 127.308 189.353C149.08 189.353 166.731 206.975 166.731 228.713Z" fill="#5F9060"/>
<path d="M1328.95 308.611C1328.95 319.037 1316.31 327.49 1300.71 327.49C1285.11 327.49 1272.46 319.037 1272.46 308.611C1272.46 298.184 1285.11 289.732 1300.71 289.732C1316.31 289.732 1328.95 298.184 1328.95 308.611Z" fill="#5F9060"/>
<path d="M1300.71 246.71L1306.98 344.537H1294.43L1297.08 268.606L1300.71 246.71Z" fill="#3E4F66"/>
<path d="M1290.97 301.419L1300.67 315.34L1295.03 318.35L1291.15 306.339L1290.97 301.419Z" fill="#3E4F66"/>
<path d="M1314.74 292.246L1304.74 305.908L1300.71 300.649L1310.42 293.626L1314.74 292.246Z" fill="#3E4F66"/>
<path d="M1316.4 260.44C1316.4 268.971 1308.67 275.887 1299.14 275.887C1289.6 275.887 1281.88 268.971 1281.88 260.44C1281.88 251.909 1289.6 244.994 1299.14 244.994C1308.67 244.994 1316.4 251.909 1316.4 260.44Z" fill="#5F9060"/>
<path d="M1324.24 282.752C1324.24 293.178 1313.71 301.631 1300.71 301.631C1287.71 301.631 1277.17 293.178 1277.17 282.752C1277.17 272.325 1287.71 263.873 1300.71 263.873C1313.71 263.873 1324.24 272.325 1324.24 282.752Z" fill="#5F9060"/>
<path d="M209.954 339.634C209.954 345.113 204.333 349.554 197.4 349.554C190.467 349.554 184.846 345.113 184.846 339.634C184.846 334.155 190.467 329.714 197.4 329.714C204.333 329.714 209.954 334.155 209.954 339.634Z" fill="#5F9060"/>
<path d="M214.662 335.914C214.662 341.393 209.041 345.834 202.108 345.834C195.175 345.834 189.554 341.393 189.554 335.914C189.554 330.435 195.175 325.994 202.108 325.994C209.041 325.994 214.662 330.435 214.662 335.914Z" fill="#5F9060"/>
<path d="M224.077 340.874C224.077 346.353 218.808 350.794 212.308 350.794C205.808 350.794 200.538 346.353 200.538 340.874C200.538 335.395 205.808 330.954 212.308 330.954C218.808 330.954 224.077 335.395 224.077 340.874Z" fill="#5F9060"/>
<path d="M205.246 333.434L209.954 356.994H200.538L202.528 338.707L205.246 333.434Z" fill="#3E4F66"/>
<path d="M372.097 232.829C372.846 231.816 374.441 231.259 375.658 231.585V231.585C376.876 231.911 377.256 232.998 376.506 234.012L370.612 241.985C369.862 242.998 368.268 243.555 367.05 243.229V243.229C365.833 242.903 365.453 241.816 366.202 240.803L372.097 232.829Z" fill="#3E4F66" fill-opacity="0.69"/>
<path d="M353.625 255.872C354.128 254.703 355.565 253.832 356.835 253.929V253.929C358.105 254.025 358.726 255.051 358.222 256.221L354.469 264.942C353.965 266.112 352.528 266.982 351.258 266.886V266.886C349.988 266.789 349.367 265.763 349.871 264.594L353.625 255.872Z" fill="#3E4F66" fill-opacity="0.69"/>
<path d="M344.127 286.112C344.63 284.942 346.067 284.072 347.337 284.168V284.168C348.607 284.264 349.228 285.291 348.724 286.46L344.97 295.182C344.467 296.351 343.03 297.221 341.76 297.125V297.125C340.49 297.029 339.869 296.003 340.373 294.833L344.127 286.112Z" fill="#3E4F66" fill-opacity="0.69"/>
<path d="M325.665 280.112C326.168 278.942 327.606 278.072 328.875 278.168V278.168C330.145 278.264 330.766 279.291 330.263 280.46L326.509 289.182C326.005 290.351 324.568 291.221 323.298 291.125V291.125C322.029 291.029 321.408 290.003 321.911 288.833L325.665 280.112Z" fill="#3E4F66" fill-opacity="0.69"/>
<path d="M307.204 288.112C307.707 286.942 309.144 286.072 310.414 286.168V286.168C311.684 286.264 312.305 287.291 311.802 288.46L308.048 297.182C307.544 298.351 306.107 299.221 304.837 299.125V299.125C303.568 299.029 302.946 298.003 303.45 296.833L307.204 288.112Z" fill="#3E4F66" fill-opacity="0.69"/>
<path d="M324.756 301.276C325.021 300.031 326.266 298.943 327.535 298.847V298.847C328.805 298.751 329.619 299.682 329.354 300.928L327.418 310.017C327.153 311.262 325.909 312.35 324.639 312.446V312.446C323.369 312.543 322.555 311.611 322.82 310.366L324.756 301.276Z" fill="#3E4F66" fill-opacity="0.69"/>
<path d="M324.512 255.112C325.015 253.942 326.452 253.072 327.722 253.168V253.168C328.992 253.264 329.613 254.291 329.109 255.46L325.355 264.182C324.852 265.351 323.415 266.221 322.145 266.125V266.125C320.875 266.029 320.254 265.003 320.758 263.833L324.512 255.112Z" fill="#3E4F66" fill-opacity="0.69"/>
<path d="M338.156 234.062C338.865 233.017 340.439 232.4 341.67 232.686V232.686C342.901 232.972 343.324 234.052 342.614 235.098L337.095 243.231C336.386 244.277 334.813 244.893 333.581 244.607V244.607C332.35 244.321 331.928 243.242 332.637 242.196L338.156 234.062Z" fill="#3E4F66" fill-opacity="0.69"/>
<path d="M349.961 237.823C350.671 236.777 352.244 236.161 353.475 236.447V236.447C354.706 236.733 355.129 237.812 354.42 238.858L348.901 246.992C348.191 248.037 346.618 248.653 345.387 248.368V248.368C344.156 248.082 343.733 247.002 344.443 245.956L349.961 237.823Z" fill="#3E4F66" fill-opacity="0.69"/>
<path d="M360.558 219.829C361.308 218.816 362.902 218.259 364.12 218.585V218.585C365.337 218.911 365.717 219.998 364.968 221.012L359.073 228.985C358.324 229.998 356.729 230.555 355.512 230.229V230.229C354.294 229.903 353.914 228.816 354.664 227.803L360.558 219.829Z" fill="#3E4F66" fill-opacity="0.69"/>
<path d="M0 343.994H1340V477C1340 488.045 1331.05 497 1320 497H20C8.95429 497 0 488.045 0 477V343.994Z" fill="#AEDBAB"/>
<path d="M952.154 229.994H957.924V279.994H952.154V229.994Z" fill="#AFAFAF"/>
<path d="M913.77 281.994C912.665 281.994 911.77 281.098 911.77 279.994V278.994C911.77 277.889 912.665 276.994 913.77 276.994H955.924C957.028 276.994 957.924 277.889 957.924 278.994V279.994C957.924 281.098 957.028 281.994 955.924 281.994H913.77Z" fill="#AFAFAF"/>
<path d="M952.154 241.994C954.638 243.16 955.319 243.16 957.843 241.994V242.922C955.92 244.385 954.678 244.327 952.154 242.922V241.994Z" fill="#FAFAFA"/>
<path d="M952.154 251.994C954.638 253.16 955.319 253.16 957.843 251.994V252.922C955.92 254.385 954.678 254.327 952.154 252.922V251.994Z" fill="#FAFAFA"/>
<path d="M952.154 261.994C954.638 263.16 955.319 263.16 957.843 261.994V262.922C955.92 264.385 954.678 264.327 952.154 262.922V261.994Z" fill="#FAFAFA"/>
<path d="M952.154 271.994C954.638 273.16 955.319 273.16 957.843 271.994V272.922C955.92 274.385 954.678 274.327 952.154 272.922V271.994Z" fill="#FAFAFA"/>
<path d="M947.544 276.994C946.198 279.147 946.198 279.737 947.544 281.924H946.472C944.784 280.258 944.851 279.181 946.472 276.994H947.544Z" fill="#FAFAFA"/>
<path d="M934.851 276.994C933.505 279.147 933.505 279.737 934.851 281.924H933.78C932.092 280.258 932.159 279.181 933.78 276.994H934.851Z" fill="#FAFAFA"/>
<path d="M921.005 276.994C919.659 279.147 919.659 279.737 921.005 281.924H919.934C918.246 280.258 918.313 279.181 919.934 276.994H921.005Z" fill="#FAFAFA"/>
<path d="M952.154 231.994C954.638 233.16 955.319 233.16 957.843 231.994V232.922C955.92 234.385 954.678 234.327 952.154 232.922V231.994Z" fill="#FAFAFA"/>
<path d="M1185.24 145.994H1033.87L944.082 226.994H1103.14L1185.24 145.994Z" fill="#3E4F66"/>
<path d="M886.188 393.307C886.188 395.503 883.981 397.283 881.601 397.283C879.22 397.283 877.291 395.503 877.291 393.307C877.291 391.111 879.22 389.331 881.601 389.331C883.981 389.331 886.188 391.111 886.188 393.307Z" fill="#5F9060"/>
<path d="M900.368 393.307C900.368 395.503 898.438 397.283 896.058 397.283C893.678 397.283 891.749 395.503 891.749 393.307C891.471 390.777 893.678 389.331 896.058 389.331C898.438 389.331 900.368 391.111 900.368 393.307Z" fill="#5F9060"/>
<path d="M897.31 400.777C897.31 402.973 895.38 404.753 893 404.753C890.62 404.753 888.69 402.973 888.69 400.777C888.69 398.581 890.62 396.56 893 396.56C895.38 396.56 897.31 398.581 897.31 400.777Z" fill="#5F9060"/>
<path d="M888.968 400.416C888.968 402.612 886.761 404.753 884.381 404.753C882.001 404.753 880.071 402.973 880.071 400.777C880.071 398.581 882.001 396.801 884.381 396.801C886.761 396.801 888.968 398.22 888.968 400.416Z" fill="#5F9060"/>
<ellipse cx="888.83" cy="388.97" rx="4.30955" ry="3.97591" fill="#5F9060"/>
<rect x="884.798" y="390.536" width="2.78035" height="4.33735" fill="#5F9060"/>
<rect x="883.408" y="394.151" width="2.78035" height="4.33735" fill="#5F9060"/>
<rect x="887.3" y="397.042" width="2.78035" height="4.33735" fill="#5F9060"/>
<rect x="891.471" y="394.391" width="2.78035" height="4.33735" fill="#5F9060"/>
<rect x="890.081" y="390.536" width="2.78035" height="4.33735" fill="#5F9060"/>
<ellipse cx="888.69" cy="394.873" rx="3.61446" ry="3.13253" fill="#3E4F66"/>
<path d="M887.778 401.389C887.823 400.972 888.174 400.656 888.593 400.656V400.656C889.087 400.656 889.469 401.09 889.406 401.58L888.018 412.409C887.911 413.246 887.905 414.092 888.002 414.93L889.419 427.211C889.475 427.698 889.094 428.126 888.603 428.126V428.126C888.18 428.126 887.826 427.805 887.785 427.383L886.593 414.99C886.509 414.111 886.514 413.226 886.607 412.348L887.778 401.389Z" fill="#3E4F66"/>
<path d="M1142.02 344.06C1142.02 345.927 1140.15 347.44 1138.12 347.44C1136.1 347.44 1134.46 345.927 1134.46 344.06C1134.46 342.194 1136.1 340.681 1138.12 340.681C1140.15 340.681 1142.02 342.194 1142.02 344.06Z" fill="#5F9060"/>
<path d="M1154.08 344.06C1154.08 345.927 1152.44 347.44 1150.41 347.44C1148.39 347.44 1146.75 345.927 1146.75 344.06C1146.51 341.91 1148.39 340.681 1150.41 340.681C1152.44 340.681 1154.08 342.194 1154.08 344.06Z" fill="#5F9060"/>
<path d="M1151.48 350.41C1151.48 352.276 1149.84 353.789 1147.81 353.789C1145.79 353.789 1144.15 352.276 1144.15 350.41C1144.15 348.543 1145.79 346.825 1147.81 346.825C1149.84 346.825 1151.48 348.543 1151.48 350.41Z" fill="#5F9060"/>
<path d="M1144.39 350.102C1144.39 351.969 1142.51 353.789 1140.49 353.789C1138.46 353.789 1136.82 352.276 1136.82 350.41C1136.82 348.543 1138.46 347.03 1140.49 347.03C1142.51 347.03 1144.39 348.236 1144.39 350.102Z" fill="#5F9060"/>
<ellipse cx="1144.27" cy="340.373" rx="3.66312" ry="3.37952" fill="#5F9060"/>
<rect x="1140.84" y="341.705" width="2.3633" height="3.68675" fill="#5F9060"/>
<rect x="1139.66" y="344.777" width="2.3633" height="3.68675" fill="#5F9060"/>
<rect x="1142.97" y="347.235" width="2.3633" height="3.68675" fill="#5F9060"/>
<rect x="1146.51" y="344.982" width="2.3633" height="3.68675" fill="#5F9060"/>
<rect x="1145.33" y="341.705" width="2.3633" height="3.68675" fill="#5F9060"/>
<ellipse cx="1144.15" cy="345.392" rx="3.07229" ry="2.66265" fill="#3E4F66"/>
<path d="M1143.38 350.93C1143.41 350.576 1143.71 350.307 1144.07 350.307V350.307C1144.49 350.307 1144.81 350.676 1144.76 351.092L1143.58 360.297C1143.49 361.008 1143.48 361.727 1143.57 362.44L1144.77 372.878C1144.82 373.293 1144.49 373.657 1144.08 373.657V373.657C1143.72 373.657 1143.42 373.383 1143.38 373.025L1142.37 362.491C1142.3 361.744 1142.3 360.991 1142.38 360.245L1143.38 350.93Z" fill="#3E4F66"/>
<path d="M1304.9 385.307C1304.9 387.503 1302.69 389.283 1300.31 389.283C1297.93 389.283 1296 387.503 1296 385.307C1296 383.111 1297.93 381.331 1300.31 381.331C1302.69 381.331 1304.9 383.111 1304.9 385.307Z" fill="#5F9060"/>
<path d="M1319.08 385.307C1319.08 387.503 1317.15 389.283 1314.77 389.283C1312.39 389.283 1310.46 387.503 1310.46 385.307C1310.18 382.777 1312.39 381.331 1314.77 381.331C1317.15 381.331 1319.08 383.111 1319.08 385.307Z" fill="#5F9060"/>
<path d="M1316.02 392.777C1316.02 394.973 1314.09 396.753 1311.71 396.753C1309.33 396.753 1307.4 394.973 1307.4 392.777C1307.4 390.581 1309.33 388.56 1311.71 388.56C1314.09 388.56 1316.02 390.581 1316.02 392.777Z" fill="#5F9060"/>
<path d="M1307.68 392.416C1307.68 394.612 1305.47 396.753 1303.09 396.753C1300.71 396.753 1298.78 394.973 1298.78 392.777C1298.78 390.581 1300.71 388.801 1303.09 388.801C1305.47 388.801 1307.68 390.22 1307.68 392.416Z" fill="#5F9060"/>
<ellipse cx="1307.54" cy="380.97" rx="4.30955" ry="3.97591" fill="#5F9060"/>
<rect x="1303.51" y="382.536" width="2.78035" height="4.33735" fill="#5F9060"/>
<rect x="1302.12" y="386.151" width="2.78035" height="4.33735" fill="#5F9060"/>
<rect x="1306.01" y="389.042" width="2.78035" height="4.33735" fill="#5F9060"/>
<rect x="1310.18" y="386.391" width="2.78035" height="4.33735" fill="#5F9060"/>
<rect x="1308.79" y="382.536" width="2.78035" height="4.33735" fill="#5F9060"/>
<ellipse cx="1307.4" cy="386.873" rx="3.61446" ry="3.13253" fill="#3E4F66"/>
<path d="M1306.49 393.389C1306.53 392.972 1306.88 392.656 1307.3 392.656V392.656C1307.8 392.656 1308.18 393.09 1308.12 393.58L1306.73 404.409C1306.62 405.246 1306.61 406.092 1306.71 406.93L1308.13 419.211C1308.18 419.698 1307.8 420.126 1307.31 420.126V420.126C1306.89 420.126 1306.54 419.805 1306.49 419.383L1305.3 406.99C1305.22 406.111 1305.22 405.226 1305.32 404.348L1306.49 393.389Z" fill="#3E4F66"/>
<path d="M33.3588 402.307C33.3588 404.503 31.1513 406.283 28.7712 406.283C26.3911 406.283 24.4617 404.503 24.4617 402.307C24.4617 400.111 26.3911 398.331 28.7712 398.331C31.1513 398.331 33.3588 400.111 33.3588 402.307Z" fill="#5F9060"/>
<path d="M47.5384 402.307C47.5384 404.503 45.6089 406.283 43.2288 406.283C40.8487 406.283 38.9193 404.503 38.9193 402.307C38.6412 399.777 40.8487 398.331 43.2288 398.331C45.6089 398.331 47.5384 400.111 47.5384 402.307Z" fill="#5F9060"/>
<path d="M44.4799 409.777C44.4799 411.973 42.5505 413.753 40.1704 413.753C37.7903 413.753 35.8608 411.973 35.8608 409.777C35.8608 407.581 37.7903 405.56 40.1704 405.56C42.5505 405.56 44.4799 407.581 44.4799 409.777Z" fill="#5F9060"/>
<path d="M36.1388 409.416C36.1388 411.612 33.9313 413.753 31.5512 413.753C29.1711 413.753 27.2417 411.973 27.2417 409.777C27.2417 407.581 29.1711 405.801 31.5512 405.801C33.9313 405.801 36.1388 407.22 36.1388 409.416Z" fill="#5F9060"/>
<ellipse cx="36.0002" cy="397.97" rx="4.30955" ry="3.97591" fill="#5F9060"/>
<rect x="31.9685" y="399.536" width="2.78035" height="4.33735" fill="#5F9060"/>
<rect x="30.5781" y="403.151" width="2.78035" height="4.33735" fill="#5F9060"/>
<rect x="34.4707" y="406.042" width="2.78035" height="4.33735" fill="#5F9060"/>
<rect x="38.6414" y="403.391" width="2.78035" height="4.33735" fill="#5F9060"/>
<rect x="37.251" y="399.536" width="2.78035" height="4.33735" fill="#5F9060"/>
<ellipse cx="35.8608" cy="403.873" rx="3.61446" ry="3.13253" fill="#3E4F66"/>
<path d="M34.9486 410.389C34.9931 409.972 35.3447 409.656 35.7637 409.656V409.656C36.2577 409.656 36.6395 410.09 36.5767 410.58L35.1884 421.409C35.0811 422.246 35.0758 423.092 35.1725 423.93L36.5894 436.211C36.6457 436.698 36.2643 437.126 35.7733 437.126V437.126C35.35 437.126 34.996 436.805 34.9555 436.383L33.7638 423.99C33.6793 423.111 33.684 422.226 33.7778 421.348L34.9486 410.389Z" fill="#3E4F66"/>
<path d="M518.052 383.723C518.052 386.028 520.369 387.897 522.869 387.897C525.368 387.897 527.394 386.028 527.394 383.723C527.394 381.417 525.368 379.548 522.869 379.548C520.369 379.548 518.052 381.417 518.052 383.723Z" fill="#5F9060"/>
<path d="M503.163 383.723C503.163 386.028 505.188 387.897 507.688 387.897C510.187 387.897 512.213 386.028 512.213 383.723C512.505 381.066 510.187 379.548 507.688 379.548C505.188 379.548 503.163 381.417 503.163 383.723Z" fill="#5F9060"/>
<path d="M506.374 391.566C506.374 393.872 508.4 395.741 510.899 395.741C513.398 395.741 515.424 393.872 515.424 391.566C515.424 389.261 513.398 387.138 510.899 387.138C508.4 387.138 506.374 389.261 506.374 391.566Z" fill="#5F9060"/>
<path d="M515.132 391.187C515.132 393.492 517.45 395.741 519.949 395.741C522.448 395.741 524.474 393.872 524.474 391.566C524.474 389.261 522.448 387.392 519.949 387.392C517.45 387.392 515.132 388.881 515.132 391.187Z" fill="#5F9060"/>
<ellipse cx="4.52502" cy="4.1747" rx="4.52502" ry="4.1747" transform="matrix(-1 0 0 1 519.803 374.994)" fill="#5F9060"/>
<rect width="2.91937" height="4.55422" transform="matrix(-1 0 0 1 519.511 380.813)" fill="#5F9060"/>
<rect width="2.91937" height="4.55422" transform="matrix(-1 0 0 1 520.971 384.608)" fill="#5F9060"/>
<rect width="2.91937" height="4.55422" transform="matrix(-1 0 0 1 516.884 387.645)" fill="#5F9060"/>
<rect width="2.91937" height="4.55422" transform="matrix(-1 0 0 1 512.505 384.861)" fill="#5F9060"/>
<rect width="2.91937" height="4.55422" transform="matrix(-1 0 0 1 513.964 380.813)" fill="#5F9060"/>
<ellipse cx="3.79518" cy="3.28916" rx="3.79518" ry="3.28916" transform="matrix(-1 0 0 1 519.219 382.078)" fill="#3E4F66"/>
<path d="M514.183 392.209C514.23 391.771 514.599 391.439 515.039 391.439V391.439C515.558 391.439 515.959 391.895 515.893 392.41L514.435 403.78C514.323 404.658 514.317 405.547 514.418 406.427L515.906 419.321C515.965 419.834 515.565 420.283 515.049 420.283V420.283C514.605 420.283 514.233 419.945 514.191 419.503L512.939 406.49C512.851 405.567 512.856 404.638 512.954 403.716L514.183 392.209Z" fill="#3E4F66"/>
<path d="M386.255 367.06C386.255 368.927 384.379 370.44 382.355 370.44C380.332 370.44 378.692 368.927 378.692 367.06C378.692 365.194 380.332 363.681 382.355 363.681C384.379 363.681 386.255 365.194 386.255 367.06Z" fill="#5F9060"/>
<path d="M398.308 367.06C398.308 368.927 396.668 370.44 394.644 370.44C392.621 370.44 390.981 368.927 390.981 367.06C390.745 364.91 392.621 363.681 394.644 363.681C396.668 363.681 398.308 365.194 398.308 367.06Z" fill="#5F9060"/>
<path d="M395.708 373.41C395.708 375.276 394.068 376.789 392.044 376.789C390.021 376.789 388.381 375.276 388.381 373.41C388.381 371.543 390.021 369.825 392.044 369.825C394.068 369.825 395.708 371.543 395.708 373.41Z" fill="#5F9060"/>
<path d="M388.618 373.102C388.618 374.969 386.742 376.789 384.719 376.789C382.695 376.789 381.055 375.276 381.055 373.41C381.055 371.543 382.695 370.03 384.719 370.03C386.742 370.03 388.618 371.236 388.618 373.102Z" fill="#5F9060"/>
<ellipse cx="388.5" cy="363.373" rx="3.66312" ry="3.37952" fill="#5F9060"/>
<rect x="385.073" y="364.705" width="2.3633" height="3.68675" fill="#5F9060"/>
<rect x="383.891" y="367.777" width="2.3633" height="3.68675" fill="#5F9060"/>
<rect x="387.2" y="370.235" width="2.3633" height="3.68675" fill="#5F9060"/>
<rect x="390.745" y="367.982" width="2.3633" height="3.68675" fill="#5F9060"/>
<rect x="389.563" y="364.705" width="2.3633" height="3.68675" fill="#5F9060"/>
<ellipse cx="388.382" cy="368.392" rx="3.07229" ry="2.66265" fill="#3E4F66"/>
<path d="M387.606 373.93C387.644 373.576 387.943 373.307 388.299 373.307V373.307C388.719 373.307 389.043 373.676 388.99 374.092L387.81 383.297C387.719 384.008 387.714 384.727 387.796 385.44L389.001 395.878C389.049 396.293 388.724 396.657 388.307 396.657V396.657C387.947 396.657 387.646 396.383 387.612 396.025L386.599 385.491C386.527 384.744 386.531 383.991 386.611 383.245L387.606 373.93Z" fill="#3E4F66"/>
<path d="M153.053 372.06C153.053 373.927 154.929 375.44 156.952 375.44C158.975 375.44 160.615 373.927 160.615 372.06C160.615 370.194 158.975 368.681 156.952 368.681C154.929 368.681 153.053 370.194 153.053 372.06Z" fill="#5F9060"/>
<path d="M141 372.06C141 373.927 142.64 375.44 144.663 375.44C146.686 375.44 148.326 373.927 148.326 372.06C148.563 369.91 146.686 368.681 144.663 368.681C142.64 368.681 141 370.194 141 372.06Z" fill="#5F9060"/>
<path d="M143.6 378.41C143.6 380.276 145.24 381.789 147.263 381.789C149.286 381.789 150.926 380.276 150.926 378.41C150.926 376.543 149.286 374.825 147.263 374.825C145.24 374.825 143.6 376.543 143.6 378.41Z" fill="#5F9060"/>
<path d="M150.69 378.102C150.69 379.969 152.566 381.789 154.589 381.789C156.612 381.789 158.252 380.276 158.252 378.41C158.252 376.543 156.612 375.03 154.589 375.03C152.566 375.03 150.69 376.236 150.69 378.102Z" fill="#5F9060"/>
<ellipse cx="3.66312" cy="3.37952" rx="3.66312" ry="3.37952" transform="matrix(-1 0 0 1 154.471 364.994)" fill="#5F9060"/>
<rect width="2.3633" height="3.68675" transform="matrix(-1 0 0 1 154.235 369.705)" fill="#5F9060"/>
<rect width="2.3633" height="3.68675" transform="matrix(-1 0 0 1 155.416 372.777)" fill="#5F9060"/>
<rect width="2.3633" height="3.68675" transform="matrix(-1 0 0 1 152.107 375.235)" fill="#5F9060"/>
<rect width="2.3633" height="3.68675" transform="matrix(-1 0 0 1 148.562 372.982)" fill="#5F9060"/>
<rect width="2.3633" height="3.68675" transform="matrix(-1 0 0 1 149.744 369.705)" fill="#5F9060"/>
<ellipse cx="3.07229" cy="2.66265" rx="3.07229" ry="2.66265" transform="matrix(-1 0 0 1 153.998 370.729)" fill="#3E4F66"/>
<path d="M151.701 378.93C151.663 378.576 151.365 378.307 151.009 378.307V378.307C150.589 378.307 150.264 378.676 150.317 379.092L151.497 388.297C151.589 389.008 151.593 389.727 151.511 390.44L150.307 400.878C150.259 401.293 150.583 401.657 151 401.657V401.657C151.36 401.657 151.661 401.383 151.695 401.025L152.708 390.491C152.78 389.744 152.776 388.991 152.697 388.245L151.701 378.93Z" fill="#3E4F66"/>
<path d="M226.098 396.307C226.098 398.503 228.306 400.283 230.686 400.283C233.066 400.283 234.996 398.503 234.996 396.307C234.996 394.111 233.066 392.331 230.686 392.331C228.306 392.331 226.098 394.111 226.098 396.307Z" fill="#5F9060"/>
<path d="M211.918 396.307C211.918 398.503 213.848 400.283 216.228 400.283C218.608 400.283 220.538 398.503 220.538 396.307C220.816 393.777 218.608 392.331 216.228 392.331C213.848 392.331 211.918 394.111 211.918 396.307Z" fill="#5F9060"/>
<path d="M214.977 403.777C214.977 405.973 216.907 407.753 219.287 407.753C221.667 407.753 223.596 405.973 223.596 403.777C223.596 401.581 221.667 399.56 219.287 399.56C216.907 399.56 214.977 401.581 214.977 403.777Z" fill="#5F9060"/>
<path d="M223.318 403.416C223.318 405.612 225.525 407.753 227.906 407.753C230.286 407.753 232.215 405.973 232.215 403.777C232.215 401.581 230.286 399.801 227.906 399.801C225.525 399.801 223.318 401.22 223.318 403.416Z" fill="#5F9060"/>
<ellipse cx="4.30955" cy="3.97591" rx="4.30955" ry="3.97591" transform="matrix(-1 0 0 1 227.767 387.994)" fill="#5F9060"/>
<rect width="2.78035" height="4.33735" transform="matrix(-1 0 0 1 227.489 393.536)" fill="#5F9060"/>
<rect width="2.78035" height="4.33735" transform="matrix(-1 0 0 1 228.879 397.151)" fill="#5F9060"/>
<rect width="2.78035" height="4.33735" transform="matrix(-1 0 0 1 224.986 400.042)" fill="#5F9060"/>
<rect width="2.78035" height="4.33735" transform="matrix(-1 0 0 1 220.816 397.391)" fill="#5F9060"/>
<rect width="2.78035" height="4.33735" transform="matrix(-1 0 0 1 222.206 393.536)" fill="#5F9060"/>
<ellipse cx="3.61446" cy="3.13253" rx="3.61446" ry="3.13253" transform="matrix(-1 0 0 1 227.211 394.741)" fill="#3E4F66"/>
<path d="M224.508 404.389C224.464 403.972 224.112 403.656 223.693 403.656V403.656C223.199 403.656 222.818 404.09 222.88 404.58L224.269 415.409C224.376 416.246 224.381 417.092 224.285 417.93L222.868 430.211C222.811 430.698 223.193 431.126 223.684 431.126V431.126C224.107 431.126 224.461 430.805 224.502 430.383L225.693 417.99C225.778 417.111 225.773 416.226 225.679 415.348L224.508 404.389Z" fill="#3E4F66"/>
<path d="M337.209 328.306C337.172 328.18 337.154 328.049 337.154 327.918V327.918C337.154 327.727 337.193 327.537 337.269 327.362L337.3 327.289C337.343 327.19 337.401 327.099 337.471 327.017L337.511 326.972C337.686 326.769 337.941 326.652 338.209 326.652V326.652H338.665C339.064 326.652 339.462 326.69 339.853 326.766L340.476 326.886C340.513 326.893 340.548 326.904 340.582 326.919L340.859 327.038C341.249 327.208 341.618 326.759 341.375 326.409V326.409L340.531 325.189L340.509 325.164C340.384 325.02 340.293 324.85 340.24 324.667L340.212 324.571C340.145 324.34 340.161 324.093 340.257 323.872V323.872C340.299 323.775 340.355 323.685 340.424 323.605L340.567 323.44C340.682 323.307 340.828 323.205 340.991 323.142V323.142C341.238 323.047 341.512 323.047 341.759 323.142V323.142C341.923 323.205 342.068 323.307 342.183 323.44L342.431 323.726V323.726C342.992 324.375 343.502 325.068 343.953 325.799L344.33 326.409L345.335 328.266C345.369 328.328 345.397 328.393 345.42 328.46L345.576 328.911C345.854 329.712 346.915 329.875 347.42 329.195V329.195C347.471 329.126 347.529 329.064 347.595 329.01L348.469 328.288C348.805 328.011 349.163 327.762 349.54 327.545L349.715 327.444C350.064 327.242 350.433 327.076 350.817 326.95V326.95C351.413 326.753 352.038 326.652 352.666 326.652H352.773H353.117C353.308 326.652 353.498 326.688 353.676 326.756L353.798 326.803C353.956 326.864 354.098 326.964 354.209 327.092V327.092C354.372 327.28 354.461 327.521 354.461 327.77V327.872V328.24C354.461 328.475 354.377 328.701 354.224 328.878V328.878C354.103 329.018 353.946 329.12 353.77 329.173L351.881 329.748C350.671 330.116 349.59 330.818 348.763 331.774V331.774L348.444 332.216C347.957 332.892 347.589 333.647 347.358 334.448V334.448C347.17 335.101 347.074 335.778 347.074 336.458V336.565C347.074 336.948 347.101 337.33 347.156 337.709L347.285 338.604L345.808 339.091L344.33 338.604L344.451 337.767C344.511 337.35 344.541 336.929 344.541 336.507V336.323C344.541 335.732 344.469 335.143 344.328 334.569L344.285 334.396C344.175 333.95 344.012 333.52 343.801 333.113V333.113C343.592 332.71 343.336 332.333 343.038 331.989L342.325 331.164C341.976 330.761 341.561 330.419 341.099 330.152V330.152C340.722 329.934 340.317 329.768 339.895 329.66L338.808 329.381C338.691 329.351 338.57 329.335 338.448 329.335H338.223C337.946 329.335 337.683 329.215 337.502 329.006V329.006C337.412 328.902 337.345 328.779 337.307 328.646L337.209 328.306Z" fill="#5F9060"/>
<path d="M346.953 373.817C346.559 374.882 345.045 374.859 344.684 373.782L344.665 373.726L341.164 356.409L338.631 344.457V344.457C338.074 340.462 341.176 336.896 345.21 336.896H346.03C350.114 336.896 353.325 340.388 352.984 344.457V344.457L350.153 357.506L347.006 373.63C346.993 373.694 346.976 373.756 346.953 373.817V373.817Z" fill="#C77700"/>
<path d="M271.439 330.306C271.403 330.18 271.384 330.049 271.384 329.918V329.918C271.384 329.727 271.423 329.537 271.499 329.362L271.531 329.289C271.574 329.19 271.631 329.099 271.702 329.017L271.741 328.972C271.917 328.769 272.172 328.652 272.44 328.652V328.652H272.895C273.294 328.652 273.692 328.69 274.084 328.766L274.706 328.886C274.743 328.893 274.779 328.904 274.813 328.919L275.089 329.038C275.48 329.208 275.848 328.759 275.606 328.409V328.409L274.761 327.189L274.74 327.164C274.615 327.02 274.523 326.85 274.47 326.667L274.442 326.571C274.376 326.34 274.391 326.093 274.487 325.872V325.872C274.529 325.775 274.585 325.685 274.655 325.605L274.798 325.44C274.912 325.307 275.058 325.205 275.222 325.142V325.142C275.469 325.047 275.743 325.047 275.99 325.142V325.142C276.153 325.205 276.299 325.307 276.414 325.44L276.661 325.726V325.726C277.223 326.375 277.732 327.068 278.184 327.799L278.561 328.409L279.565 330.266C279.599 330.328 279.628 330.393 279.651 330.46L279.807 330.911C280.084 331.712 281.145 331.875 281.65 331.195V331.195C281.701 331.126 281.76 331.064 281.826 331.01L282.7 330.288C283.035 330.011 283.394 329.762 283.771 329.545L283.945 329.444C284.294 329.242 284.664 329.076 285.047 328.95V328.95C285.644 328.753 286.268 328.652 286.897 328.652H287.003H287.347C287.538 328.652 287.728 328.688 287.907 328.756L288.028 328.803C288.187 328.864 288.328 328.964 288.439 329.092V329.092C288.602 329.28 288.692 329.521 288.692 329.77V329.872V330.24C288.692 330.475 288.608 330.701 288.454 330.878V330.878C288.334 331.018 288.176 331.12 288 331.173L286.111 331.748C284.901 332.116 283.82 332.818 282.993 333.774V333.774L282.674 334.216C282.187 334.892 281.82 335.647 281.589 336.448V336.448C281.4 337.101 281.305 337.778 281.305 338.458V338.565C281.305 338.948 281.332 339.33 281.387 339.709L281.516 340.604L280.038 341.091L278.561 340.604L278.681 339.767C278.742 339.35 278.772 338.929 278.772 338.507V338.323C278.772 337.732 278.7 337.143 278.558 336.569L278.515 336.396C278.405 335.95 278.243 335.52 278.032 335.113V335.113C277.822 334.71 277.566 334.333 277.269 333.989L276.555 333.164C276.206 332.761 275.792 332.419 275.33 332.152V332.152C274.953 331.934 274.547 331.768 274.125 331.66L273.039 331.381C272.921 331.351 272.8 331.335 272.679 331.335H272.453C272.176 331.335 271.913 331.215 271.732 331.006V331.006C271.642 330.902 271.576 330.779 271.537 330.646L271.439 330.306Z" fill="#5F9060"/>
<path d="M281.184 375.817C280.79 376.882 279.276 376.859 278.915 375.782L278.896 375.726L275.395 358.409L272.862 346.457V346.457C272.304 342.462 275.407 338.896 279.441 338.896H280.26C284.344 338.896 287.555 342.388 287.214 346.457V346.457L284.384 359.506L281.236 375.63C281.224 375.694 281.206 375.756 281.184 375.817V375.817Z" fill="#C77700"/>
<path d="M301.458 329.581C301.409 329.425 301.385 329.263 301.385 329.1V329.1C301.385 328.864 301.436 328.63 301.536 328.416L301.573 328.336C301.635 328.204 301.717 328.082 301.816 327.975L301.846 327.943C302.09 327.68 302.433 327.531 302.792 327.531V327.531H303.406C303.934 327.531 304.46 327.578 304.98 327.671L305.82 327.822C305.865 327.83 305.909 327.842 305.951 327.859L306.39 328.036C306.887 328.236 307.333 327.658 307.013 327.229V327.229L305.888 325.716L305.847 325.672C305.688 325.502 305.57 325.298 305.502 325.076L305.465 324.958C305.375 324.667 305.396 324.353 305.524 324.077V324.077C305.579 323.961 305.651 323.853 305.738 323.759L305.922 323.562C306.084 323.387 306.286 323.254 306.511 323.174V323.174C306.836 323.058 307.191 323.058 307.516 323.174V323.174C307.74 323.254 307.942 323.387 308.105 323.562L308.42 323.901V323.901C309.17 324.707 309.852 325.572 310.461 326.488L310.953 327.229L312.286 329.52C312.335 329.606 312.378 329.695 312.412 329.788L312.602 330.299C312.991 331.343 314.371 331.564 315.066 330.693V330.693C315.138 330.602 315.221 330.52 315.313 330.45L316.456 329.572C316.914 329.22 317.4 328.906 317.909 328.633L318.117 328.521C318.593 328.265 319.094 328.056 319.611 327.897V327.897C320.401 327.655 321.224 327.531 322.05 327.531H322.21H322.681C322.928 327.531 323.174 327.574 323.406 327.657L323.601 327.727C323.797 327.797 323.973 327.913 324.114 328.065V328.065C324.337 328.305 324.462 328.621 324.462 328.949V329.044V329.468C324.462 329.779 324.344 330.077 324.133 330.304V330.304C323.98 330.469 323.784 330.588 323.568 330.649L320.937 331.394C319.377 331.835 317.968 332.696 316.863 333.883V333.883L316.408 334.471C315.778 335.282 315.3 336.201 314.996 337.181V337.181C314.741 338.003 314.612 338.858 314.612 339.718V339.824C314.612 340.299 314.648 340.774 314.721 341.243L314.893 342.353L312.923 342.958L310.953 342.353L311.114 341.314C311.194 340.797 311.235 340.275 311.235 339.752V339.539C311.235 338.796 311.138 338.057 310.947 337.34L310.898 337.156C310.748 336.59 310.527 336.044 310.242 335.533V335.533C309.967 335.04 309.633 334.582 309.249 334.169L308.308 333.157C307.823 332.636 307.257 332.199 306.63 331.863V331.863C306.137 331.598 305.612 331.398 305.068 331.268L303.588 330.914C303.433 330.877 303.274 330.858 303.115 330.858H302.771C302.425 330.858 302.095 330.715 301.86 330.461V330.461C301.732 330.325 301.637 330.161 301.582 329.982L301.458 329.581Z" fill="#5F9060"/>
<path d="M314.445 386.039C313.896 387.419 311.932 387.387 311.429 385.99L311.4 385.91L306.732 364.434L303.355 349.612V349.612C302.614 344.676 306.437 340.235 311.43 340.235H313.921C318.978 340.235 322.945 344.576 322.492 349.612V349.612L318.717 365.795L314.524 385.775C314.505 385.865 314.479 385.954 314.445 386.039V386.039Z" fill="#C77700"/>
<path d="M426.786 167.083C425.754 167.517 424.84 168.169 424.105 168.993L420.602 172.926C419.997 173.605 418.949 173.707 418.166 173.162V173.162C418 173.047 417.818 172.958 417.626 172.899L417.184 172.762C415.769 172.324 414.257 172.555 413.1 173.386V173.386C412.704 173.671 412.36 174.018 412.082 174.416L411.421 175.358L398.333 192.444C397.539 193.481 397.239 194.817 397.506 196.129L397.517 196.184C397.764 197.395 398.487 198.483 399.527 199.205V199.205L410.397 208.846C410.823 209.223 410.642 209.898 410.092 209.982V209.982L391.407 210.369C390.172 210.395 389.066 209.515 388.821 208.312V208.312C388.745 207.938 388.582 207.583 388.345 207.274L386.809 205.279L386.234 204.88C385.538 204.397 384.774 204.024 383.969 203.775L383.173 203.528C382.537 203.332 381.869 203.28 381.224 203.379L380.563 203.48C379.881 203.584 379.282 203.952 378.896 204.502V204.502C378.585 204.946 378.431 205.482 378.457 206.033L379.223 222.536C379.236 222.817 379.271 223.097 379.327 223.374L379.626 224.843C379.728 225.346 380.028 225.797 380.46 226.097V226.097C381.047 226.504 381.798 226.578 382.424 226.29L383.197 225.933L385.199 224.801L386.502 223.866C387.252 223.327 387.903 222.669 388.431 221.917V221.917C389.973 219.718 392.509 218.407 395.281 218.375L410.369 218.201L418.17 218.111C419.432 218.097 420.684 218.485 421.739 219.217V219.217L426.886 223.938L424.144 176.167L426.158 174.283C427.152 173.352 428.31 172.603 429.58 172.069V172.069C431.685 171.184 434.03 170.916 436.342 171.298L437.134 171.429L437.818 171.64C439.338 172.111 440.782 172.815 442.094 173.727L442.84 174.245C444.252 175.225 445.427 176.506 446.271 177.985L446.318 178.067C446.873 179.039 447.268 180.086 447.488 181.167V181.167C447.806 182.728 447.751 184.324 447.328 185.827L446.423 189.04C446.375 189.21 446.3 189.369 446.199 189.512V189.512C445.685 190.246 444.645 190.405 443.872 189.868L424.144 176.167L425.345 197.097L426.886 223.938L428.84 224.543C429.514 224.751 430.22 224.805 430.904 224.701V224.701C431.979 224.537 432.937 223.991 433.602 223.165L450.466 202.189C451.145 201.345 451.576 200.329 451.714 199.244L451.888 197.884C451.986 197.118 451.767 196.332 451.28 195.699V195.699C450.584 194.795 450.453 193.606 450.94 192.629L452.386 189.728C452.869 188.761 453.145 187.698 453.197 186.605L453.283 184.817C453.35 183.42 453.242 182.013 452.959 180.626L452.747 179.583C452.273 177.252 451.255 175.036 449.775 173.114V173.114C448.753 171.786 447.528 170.62 446.145 169.66L444.669 168.635C443.797 168.029 442.87 167.507 441.902 167.076V167.076C439.827 166.151 437.596 165.661 435.357 165.635L433.135 165.61C431.306 165.59 429.509 165.938 427.856 166.633L426.786 167.083Z" fill="#3C4B62"/>
<path d="M339.05 262.181C339.438 260.966 340.785 259.982 342.06 259.982V259.982C343.334 259.982 344.053 260.966 343.666 262.181L340.816 271.113C340.429 272.327 339.081 273.311 337.807 273.311V273.311C336.532 273.311 335.813 272.327 336.201 271.113L339.05 262.181Z" fill="#3E4F66" fill-opacity="0.69"/>
<path d="M582 344H756L766 497H572L582 344Z" fill="#767676"/>
<path d="M665 344H673V391C673 391.552 672.552 392 672 392H666C665.448 392 665 391.552 665 391V344Z" fill="#FAFAFA"/>
<path d="M665.979 429.978C665.991 429.435 666.435 429 666.978 429H672C672.552 429 673 429.448 673 430V474C673 474.552 672.552 475 672 475H666.022C665.461 475 665.01 474.539 665.022 473.978L665.979 429.978Z" fill="#FAFAFA"/>
<path d="M582 344H590L580 497H572L582 344Z" fill="#FAFAFA"/>
<path d="M756 344H748L758 497H766L756 344Z" fill="#FAFAFA"/>
<rect x="876" y="363" width="74" height="10" fill="#AEDBAB"/>
<path d="M478.119 125.939C477.163 126.847 477.3 128.303 478.396 128.894V128.894V128.894C481.274 130.926 485.423 130.631 488.301 128.188L514.118 106.277L530.062 94.0882C536.641 89.0587 543.647 84.5763 550.993 80.6968V80.6968C558.967 76.485 567.304 73.0038 575.881 70.3042L579.51 69.1619C591.344 65.4371 603.47 62.8941 615.68 61.576L620.037 61.1057C632.946 59.7124 645.873 59.4318 658.658 60.2674L672.353 61.1625L698.01 64.7036L735.096 73.8073L769.247 86.292L800.465 102.158L827.494 120.235L844.349 133.92L860.364 149.879L871.778 164.606L873.943 167.438L876.327 171.04L881.694 180.336L884.469 187.355L886.735 194.376L889.028 205.302L889.676 214.671L890.529 219.402C891.335 223.879 897.993 223.954 899.619 219.505V219.505C899.851 218.871 899.935 218.207 899.867 217.56L898.127 200.978L895.92 189.662L892.39 180.302L886.647 170.454L885.031 167.223V167.223C884.748 166.659 884.421 166.119 884.052 165.606L873.473 150.891L858.992 135.343L839.91 118.561L810.654 97.3868L778.183 80.3517L738.178 65.465L699.558 55.9504V55.9504C675.335 52.2125 650.374 50.5653 625.505 51.1102V51.1102L605.874 53.7568C594.165 55.3354 582.579 58.1239 571.325 62.0718V62.0718C561.979 65.3505 552.906 69.4137 544.219 74.2105L531.871 81.0291L505.879 99.9214C504.777 100.723 503.73 101.594 502.748 102.528L478.119 125.939Z" fill="#3C4B62"/>
<path d="M535.058 127.646C536.213 125.835 534.626 123.635 532.496 124.091L524.407 125.824L513.995 127.337L502.465 128.152C498.406 128.439 494.376 127.689 490.781 125.978V125.978C484.927 123.192 480.67 118.074 479.088 111.919L477.371 105.243L474.599 96.9867L472.068 88.7012C471.886 88.1061 471.582 87.5561 471.173 87.0835V87.0835C469.989 85.7146 468.073 85.1533 466.25 85.6411L465.768 85.7701C464.601 86.0824 463.558 86.7489 462.794 87.6698V87.6698C462.047 88.5722 461.607 89.6716 461.539 90.8093L461.114 97.9401L462.801 117.881L464.993 129.702C465.413 131.968 466.367 134.095 467.782 135.919V135.919C468.835 137.278 470.126 138.445 471.6 139.372L471.752 139.468C473.927 140.836 476.421 141.679 479.034 141.93L480.205 142.042C482.109 142.225 484.038 142.162 485.941 141.856L489.903 141.218L514.092 136.203L525.856 132.432L533.987 128.586C534.428 128.377 534.8 128.051 535.058 127.646V127.646Z" fill="#3C4B62"/>
<rect width="11.5087" height="1.99485" transform="matrix(-1 0 0 1 891.509 338.559)" fill="#8A919D"/>
<path d="M880.999 342.702C881.55 342.702 881.996 342.256 881.996 341.705V338.559H880.001V341.705C880.001 342.256 880.448 342.702 880.999 342.702V342.702Z" fill="#8A919D"/>
<path d="M939.232 328.048L915.141 322.907L889.361 328.048V302.335C889.361 300.32 889.8 298.329 890.647 296.5V296.5C891.998 293.582 894.321 291.224 897.218 289.828L897.805 289.546C900.022 288.477 902.459 287.945 904.92 287.992L926.162 288.399C928.198 288.438 930.196 288.954 931.996 289.906V289.906C934.548 291.255 936.579 293.414 937.77 296.044L937.957 296.457C938.797 298.315 939.232 300.331 939.232 302.37V328.048Z" fill="#EBEBEB"/>
<path d="M939.232 326.053L938.158 326.36L914.987 330.043L889.361 326.053V351.595C889.361 353.723 889.824 355.825 890.719 357.756V357.756C892.03 360.587 894.21 362.926 896.943 364.433L897.334 364.648C899.704 365.955 902.366 366.64 905.072 366.64H924.843C927.574 366.64 930.244 365.843 932.528 364.346V364.346C934.752 362.888 936.516 360.827 937.612 358.404L937.826 357.931C938.753 355.884 939.232 353.662 939.232 351.415V326.053Z" fill="#3C4B62"/>
<path d="M939.233 326.168C939.233 328.329 927.915 330.733 914.028 330.733C900.14 330.733 889.361 328.329 889.361 326.168C889.361 324.007 900.14 322.907 914.028 322.907C927.915 322.907 939.233 324.007 939.233 326.168Z" fill="#556987"/>
<path d="M933.096 290.778C933.096 292.642 924.529 293.752 914.018 293.752C903.506 293.752 895.654 292.883 895.654 291.019C895.654 289.154 903.506 287 914.018 287C924.529 287 933.096 288.913 933.096 290.778Z" fill="#AFAFAF"/>
<path d="M931.255 290.564C931.255 291.793 923.566 292.524 914.131 292.524C904.697 292.524 897.649 291.952 897.649 290.723C897.649 289.494 904.697 288.074 914.131 288.074C923.566 288.074 931.255 289.335 931.255 290.564Z" fill="#EBEBEB"/>
<path d="M940 342.898C940 342.239 939.4 341.742 938.753 341.865L927.877 343.93L914.865 344.697L901.177 343.93L890.015 342.058C889.392 341.954 888.825 342.434 888.825 343.065V343.065C888.825 343.564 889.185 343.99 889.677 344.073L901.177 346.001L914.865 346.769L927.647 346.001L939.135 343.932C939.636 343.842 940 343.406 940 342.898V342.898Z" fill="#8A919D"/>
<path d="M940 313.589C940 312.93 939.4 312.433 938.753 312.556L927.877 314.621L914.865 315.388L901.177 314.621L890.015 312.749C889.392 312.645 888.825 313.125 888.825 313.757V313.757C888.825 314.256 889.185 314.682 889.677 314.764L901.177 316.693L914.865 317.46L927.647 316.693L939.135 314.623C939.636 314.533 940 314.098 940 313.589V313.589Z" fill="#8A919D"/>
</svg>
