<svg width="93" height="93" viewBox="0 0 93 93" fill="none" xmlns="http://www.w3.org/2000/svg">
<circle cx="46.5" cy="46.5" r="46.5" fill="#D9D9D9"/>
<path d="M9 30C9 29.4477 9.44772 29 10 29H42.5C43.3284 29 44 29.6716 44 30.5V30.5V36.5V41C44 41.2761 43.7761 41.5 43.5 41.5V41.5H38V41.5C37.7239 41.5 37.5 41.2761 37.5 41V37.5C37.5 36.9477 37.0523 36.5 36.5 36.5V36.5H16.5C15.9477 36.5 15.5 36.9477 15.5 37.5V37.5V54.5C15.5 54.7761 15.7239 55 16 55V55H21.0427C24.3282 55 27.5942 54.4966 30.7272 53.5072V53.5072C33.89 52.5084 36.8793 51.0264 39.589 49.1136L44 46L50.5 40L57.1076 35.0443C58.0345 34.3491 59.0134 33.7262 60.0357 33.181L62.3558 31.9435C64.7334 30.6755 67.4296 30.13 70.1131 30.3739V30.3739C71.0354 30.4578 71.9469 30.6341 72.8339 30.9002L73.4712 31.0914C75.4672 31.6902 77.3115 32.7101 78.8797 34.0823V34.0823C79.9541 35.0223 80.8845 36.1151 81.6411 37.3257L81.7714 37.5342C82.5854 38.8366 83.1897 40.2589 83.5622 41.7489V41.7489C83.853 42.9119 84 44.1062 84 45.305V47.0408C84 47.6795 83.9547 48.3173 83.8644 48.9495L83.835 49.1547C83.6137 50.7042 83.1012 52.1979 82.3246 53.557V53.557C81.7773 54.5147 81.1048 55.3952 80.3248 56.1752L79.8788 56.6212C78.9625 57.5375 77.9453 58.3467 76.8465 59.0334L76.7133 59.1167C75.245 60.0344 73.6552 60.7414 71.9904 61.217L71 61.5V61.5C69.0165 61.8306 66.9895 61.7979 65.0177 61.4035L63 61L59.0574 59.6858C58.6867 59.5622 58.3291 59.4024 57.9898 59.2085L55.3086 57.6763C55.1178 57.5673 55 57.3644 55 57.1446V57.1446C55 57.0495 55.0221 56.9557 55.0647 56.8707L57.44 52.12C57.4797 52.0405 57.532 51.968 57.5949 51.9051V51.9051C57.8386 51.6614 58.2078 51.5945 58.5216 51.7371L62.7165 53.6439C63.2371 53.8805 63.7832 54.0566 64.3439 54.1688L64.8521 54.2704C67.2281 54.7456 69.6923 54.489 71.9194 53.5346L72 53.5L72.3821 53.2707C73.7653 52.4408 74.8832 51.2337 75.6046 49.7909V49.7909C76.1934 48.6131 76.5 47.3145 76.5 45.9977V44.8034C76.5 43.9424 76.3357 43.0893 76.0159 42.2898V42.2898C75.6755 41.4388 75.1658 40.6658 74.5177 40.0177L74.3251 39.8251C73.4537 38.9537 72.3913 38.2971 71.2221 37.9074V37.9074C70.4127 37.6376 69.565 37.5 68.7118 37.5H68.6042C66.9061 37.5 65.246 38.0026 63.8332 38.9446L58.5 42.5L50.5 49.5L46.3376 53.022C44.782 54.3383 43.117 55.5194 41.3606 56.5526V56.5526C37.4881 58.8305 33.218 60.3603 28.7802 61.061V61.061C26.9306 61.3531 25.0594 61.5 23.1869 61.5H15.5H9.5V61.5C9.22386 61.5 9 61.2761 9 61V36.5V30V30Z" fill="#2E3C40"/>
</svg>
