<svg width="60" height="80" viewBox="0 0 60 80" fill="none" xmlns="http://www.w3.org/2000/svg">
<rect width="11.5087" height="1.99485" transform="matrix(-1 0 0 1 11.5088 51.5591)" fill="#8A919D"/>
<path d="M0.99867 55.7023C1.54953 55.7023 1.99609 55.2557 1.99609 54.7049L1.99609 51.5591H0.00124681L0.00124681 54.7049C0.00124681 55.2557 0.447809 55.7023 0.99867 55.7023Z" fill="#8A919D"/>
<path d="M59.2324 41.0478L35.1408 35.9072L9.36125 41.0478V15.3348C9.36125 13.3198 9.79992 11.3288 10.6468 9.50037C11.9983 6.58234 14.3209 4.22402 17.218 2.82816L17.8046 2.54554C20.0217 1.47728 22.4589 0.945213 24.9195 0.992275L46.1616 1.39854C48.1976 1.43748 50.196 1.95362 51.9962 2.90545C54.5483 4.25482 56.5793 6.41438 57.7697 9.04435L57.9565 9.45717C58.7975 11.315 59.2324 13.3308 59.2324 15.3701V41.0478Z" fill="#EBEBEB"/>
<path d="M59.2324 39.053L58.1583 39.3599L34.9874 43.0427L9.36125 39.053V64.5946C9.36125 66.7226 9.82449 68.825 10.7188 70.7559C12.0301 73.5871 14.2104 75.9261 16.9427 77.4326L17.3342 77.6485C19.7039 78.9552 22.3659 79.6405 25.072 79.6405H44.8433C47.5736 79.6405 50.2444 78.8431 52.5277 77.3462C54.7521 75.888 56.5156 73.827 57.6124 71.4039L57.8264 70.9312C58.7531 68.8839 59.2324 66.6624 59.2324 64.415V39.053Z" fill="#3C4B62"/>
<path d="M59.2325 39.168C59.2325 41.3291 47.9148 43.7332 34.0275 43.7332C20.1402 43.7332 9.36133 41.3291 9.36133 39.1681C9.36133 37.007 20.1402 35.9072 34.0275 35.9072C47.9148 35.9072 59.2325 37.0069 59.2325 39.168Z" fill="#556987"/>
<path d="M53.096 3.77779C53.096 5.64224 44.5294 6.75179 34.0178 6.75179C23.5062 6.75179 15.6543 5.88338 15.6543 4.01892C15.6543 2.15447 23.5062 0 34.0178 0C44.5294 0 53.096 1.91333 53.096 3.77779Z" fill="#AFAFAF"/>
<path d="M51.2549 3.56407C51.2549 4.79292 43.566 5.52421 34.1314 5.52421C24.6968 5.52421 17.6494 4.95185 17.6494 3.723C17.6494 2.49416 24.6968 1.07417 34.1314 1.07417C43.566 1.07417 51.2549 2.33522 51.2549 3.56407Z" fill="#EBEBEB"/>
<path d="M60 55.8977C60 55.2385 59.4003 54.742 58.7527 54.8649L47.8775 56.9299L34.8649 57.6971L21.1772 56.9299L10.015 55.0579C9.39202 54.9535 8.8245 55.4337 8.8245 56.0654C8.8245 56.5644 9.18497 56.9903 9.67707 57.0728L21.1772 59.0014L34.8649 59.7687L47.6473 59.0014L59.1352 56.9322C59.6358 56.842 60 56.4063 60 55.8977Z" fill="#8A919D"/>
<path d="M60 26.5888C60 25.9296 59.4003 25.4331 58.7527 25.5561L47.8775 27.621L34.8649 28.3882L21.1772 27.621L10.015 25.7491C9.39202 25.6446 8.8245 26.1249 8.8245 26.7565C8.8245 27.2555 9.18497 27.6814 9.67707 27.764L21.1772 29.6926L34.8649 30.4598L47.6473 29.6926L59.1352 27.6233C59.6358 27.5332 60 27.0975 60 26.5888Z" fill="#8A919D"/>
</svg>
